<svg width="103" height="26" viewBox="0 0 103 26" fill="none" xmlns="http://www.w3.org/2000/svg">
<g id="Vector">
<path d="M62.6366 7.17354C60.9955 7.17354 59.7065 7.5179 58.4167 8.2053C58.4167 4.53586 58.4167 1.21078 58.5345 0.0644531L50.6791 1.43991V2.12797L51.4997 2.24254C52.5538 2.47167 52.9072 3.04451 53.1394 4.42129C53.3757 7.17354 53.2572 21.852 53.1394 24.2605C55.2497 24.7194 57.4777 25.0638 59.7058 25.0638C65.9194 25.0638 69.6708 21.2791 69.6708 15.3157C69.6708 10.6145 66.6229 7.17354 62.6366 7.17354ZM59.94 23.8016C59.4709 23.8016 58.8839 23.8016 58.5332 23.6877C58.4154 22.0824 58.2989 15.3157 58.4154 9.35295C59.1188 9.12315 59.5873 9.00859 60.1743 9.00859C62.7551 9.00859 64.1619 11.99 64.1619 15.6587C64.1612 20.2474 62.4023 23.8016 59.94 23.8016ZM21.1341 0.522719H0.5V1.55448L1.67259 1.66905C3.19588 1.89818 3.78285 2.81537 4.01642 4.99412C4.36915 9.12249 4.25135 16.5773 4.01642 20.1308C3.78218 22.3102 3.19656 23.3426 1.67259 23.4559L0.5 23.6863V24.6035H13.7479V23.6863L12.341 23.4559C10.8171 23.342 10.2308 22.3102 9.99651 20.1308C9.87871 18.6395 9.76159 16.2309 9.76159 13.2502L12.5753 13.3648C14.3342 13.3648 15.154 14.7409 15.5061 16.6898H16.5615V8.55032H15.5061C15.1533 10.4999 14.3342 11.8754 12.5753 11.8754L9.76227 11.9906C9.76227 8.09139 9.87939 4.42195 9.99719 2.2432H14.0999C17.2663 2.2432 18.9074 4.19216 20.0793 7.63313L21.2519 7.28877L21.1341 0.522719Z" fill="black"/>
<path d="M27.8169 6.9444C33.6792 6.9444 36.61 10.8436 36.61 16.0038C36.61 20.9348 33.3272 25.0645 27.4649 25.0645C21.6033 25.0645 18.6725 21.1646 18.6725 16.0038C18.6725 11.0728 21.9546 6.9444 27.8169 6.9444ZM27.4649 8.09139C24.8855 8.09139 24.182 11.5317 24.182 16.0038C24.182 20.3613 25.3546 23.9161 27.6998 23.9161C30.3943 23.9161 31.0991 20.4758 31.0991 16.0038C31.0991 11.6463 29.9279 8.09139 27.4649 8.09139ZM71.1941 16.119C71.1941 11.4171 74.242 6.9444 80.2214 6.9444C85.144 6.9444 87.4899 10.4999 87.4899 15.2011H76.5865C76.4687 19.4441 78.579 22.5407 82.8002 22.5407C84.6762 22.5407 85.6139 22.0831 86.7871 21.2798L87.2549 21.8526C86.0823 23.4579 83.5036 25.0645 80.2214 25.0645C74.9454 25.0638 71.1941 21.3944 71.1941 16.119ZM76.5865 13.9402L82.0967 13.825C82.0967 11.5317 81.7447 8.09139 79.7522 8.09139C77.7598 8.09139 76.703 11.3019 76.5865 13.9402ZM101.443 7.86226C100.036 7.2881 98.161 6.9444 96.0507 6.9444C91.7138 6.9444 89.0159 9.46685 89.0159 12.4489C89.0159 15.4309 91.007 16.6918 93.824 17.6097C96.7542 18.6408 97.5754 19.4441 97.5754 20.8202C97.5754 22.1963 96.5199 23.4572 94.6439 23.4572C92.4172 23.4572 90.7747 22.1963 89.4857 18.7553L88.6645 18.9858L88.7823 24.0314C90.1891 24.6042 92.7679 25.0638 94.9959 25.0638C99.5685 25.0638 102.5 22.7691 102.5 19.2149C102.5 16.8064 101.21 15.4309 98.1617 14.2833C94.8781 13.0224 93.7069 12.2198 93.7069 10.7284C93.7069 9.23772 94.7637 8.2053 96.1706 8.2053C98.2795 8.2053 99.6863 9.46685 100.743 12.5635L101.563 12.3343L101.443 7.86226ZM51.8504 7.40333C49.8579 6.25767 46.3401 6.82984 44.4648 10.9589L44.5812 6.94506L36.7272 8.43575V9.12381L37.5477 9.23838C38.6038 9.35361 39.0717 9.92644 39.1895 11.4178C39.4237 14.17 39.3066 18.9871 39.1895 21.395C39.0717 22.7698 38.6038 23.4579 37.5477 23.5731L36.7272 23.6883V24.6055H47.6298V23.6883L46.223 23.5731C45.0511 23.4579 44.699 22.7698 44.5812 21.395C44.347 19.2156 44.347 14.8581 44.4648 12.1059C45.0504 11.3026 47.6298 10.6152 49.9743 12.1059L51.8504 7.40333Z" fill="black"/>
</g>
</svg>
