<svg width="117" height="38" viewBox="0 0 117 38" fill="none" xmlns="http://www.w3.org/2000/svg">
<g id="Vector">
<path fill-rule="evenodd" clip-rule="evenodd" d="M36.2872 0.30702C37.2426 0.066535 38.2371 0.0535357 39.212 0.183528C40.2975 0.333019 41.3569 0.690497 42.2798 1.28846C42.2798 2.13991 42.2798 2.99136 42.2798 3.84281C41.7079 3.40733 41.0904 3.01736 40.4209 2.74437C39.537 2.3739 38.5686 2.2179 37.6131 2.2894C37.1581 2.3284 36.6967 2.42589 36.2937 2.65338C36.0337 2.80287 35.7997 3.01086 35.6632 3.27734C35.4748 3.61532 35.4553 4.0183 35.5202 4.39527C35.5787 4.72675 35.7607 5.03223 36.0142 5.24672C36.3522 5.5327 36.7617 5.70169 37.1711 5.85768C38.0291 6.16967 38.887 6.48165 39.745 6.79363C40.4794 7.06661 41.2009 7.42409 41.7924 7.95056C42.3513 8.44453 42.7478 9.12049 42.9103 9.85494C43.0728 10.6089 43.0923 11.4019 42.8778 12.1493C42.6893 12.8253 42.2928 13.4362 41.7664 13.8912C41.2009 14.3852 40.5054 14.7101 39.7905 14.8986C38.809 15.1586 37.7756 15.1911 36.7747 15.0871C35.5202 14.9441 34.2593 14.5867 33.2064 13.8652C33.2064 13.0008 33.2064 12.1363 33.2064 11.2654C34.4673 12.2858 36.0532 12.9293 37.6846 12.9488C38.3736 12.9618 39.0885 12.8903 39.7125 12.5718C40.0635 12.3898 40.369 12.0973 40.5119 11.7203C40.6744 11.3109 40.6679 10.8429 40.5379 10.4269C40.4015 10.0109 40.07 9.69895 39.6995 9.48446C39.056 9.10749 38.3411 8.893 37.6521 8.63952C36.8137 8.32754 35.9427 8.06755 35.1628 7.61908C34.5713 7.2876 34.0253 6.83913 33.6614 6.25416C33.1674 5.47421 33.0309 4.51227 33.1154 3.60882C33.1999 2.75737 33.6029 1.93842 34.2398 1.36646C34.8183 0.833489 35.5462 0.495509 36.3002 0.300521L36.2872 0.30702Z" fill="black"/>
<path fill-rule="evenodd" clip-rule="evenodd" d="M93.8673 0.950364C94.8617 0.313403 96.0641 0.0729171 97.2341 0.105415C98.69 0.118414 100.159 0.488892 101.381 1.28834C101.381 2.13979 101.381 2.98474 101.381 3.83619C100.854 3.43971 100.295 3.07574 99.6909 2.80925C98.6445 2.34128 97.4615 2.15279 96.3241 2.32828C95.7196 2.43227 95.0697 2.69876 94.7642 3.27072C94.4457 3.88819 94.5432 4.73963 95.0827 5.20761C95.4987 5.57808 96.0316 5.76007 96.5451 5.94856C97.39 6.26054 98.2415 6.55952 99.0799 6.87801C99.8274 7.17699 100.562 7.57346 101.121 8.17143C101.634 8.7109 101.959 9.41285 102.07 10.1473C102.187 10.9468 102.154 11.7917 101.836 12.5457C101.569 13.1891 101.101 13.7416 100.529 14.1381C99.8599 14.6125 99.0669 14.879 98.2675 15.022C97.1496 15.204 95.9991 15.152 94.8942 14.918C93.9778 14.7165 93.0743 14.3851 92.2943 13.8456C92.2943 12.9811 92.2943 12.1167 92.2943 11.2522C93.2823 12.0452 94.4587 12.6237 95.7131 12.8381C96.2591 12.9356 96.8116 12.9616 97.364 12.9291C97.923 12.8836 98.495 12.7731 98.9759 12.4677C99.3464 12.2337 99.6194 11.8502 99.6974 11.4147C99.7884 10.9078 99.6974 10.3358 99.3594 9.93932C99.0539 9.58184 98.6315 9.37385 98.2155 9.18537C97.533 8.89288 96.8246 8.6719 96.1291 8.41191C95.4532 8.17143 94.7772 7.93094 94.1662 7.56046C93.6008 7.22898 93.0873 6.78051 92.7363 6.22155C92.3918 5.66258 92.2229 5.01262 92.1969 4.36266C92.1579 3.77119 92.2358 3.16673 92.4633 2.62076C92.7428 1.9318 93.2563 1.35334 93.8737 0.956864L93.8673 0.950364Z" fill="black"/>
<path fill-rule="evenodd" clip-rule="evenodd" d="M109.713 0.462954C110.402 0.215969 111.137 0.0924763 111.871 0.0989759C113.366 0.0729775 114.894 0.430456 116.167 1.22991C116.219 1.24941 116.239 1.3079 116.232 1.3599C116.232 2.17885 116.232 3.0043 116.232 3.82325C115.648 3.37478 115.017 2.9783 114.335 2.70532C113.477 2.35434 112.534 2.20485 111.611 2.26984C111.143 2.30884 110.662 2.40634 110.253 2.64032C109.954 2.80931 109.7 3.0693 109.57 3.38778C109.323 4.01174 109.453 4.80469 109.993 5.24016C110.578 5.71464 111.325 5.89663 112.014 6.16311C112.82 6.46859 113.646 6.72207 114.432 7.07955C115.154 7.41753 115.836 7.8855 116.304 8.54196C116.811 9.24392 117.012 10.1214 116.999 10.9728C117.012 11.7333 116.811 12.5067 116.388 13.1437C115.96 13.7871 115.323 14.2746 114.621 14.5801C113.867 14.9181 113.048 15.0741 112.229 15.1131C111.312 15.1586 110.389 15.0676 109.505 14.8466C108.686 14.6386 107.88 14.3331 107.185 13.8391C107.159 12.9747 107.185 12.1037 107.172 11.2328C108.439 12.2532 110.025 12.9032 111.663 12.9227C112.372 12.9357 113.106 12.8642 113.737 12.5132C114.062 12.3312 114.348 12.0518 114.484 11.6943C114.647 11.2783 114.647 10.7973 114.504 10.3749C114.367 9.97838 114.042 9.6729 113.685 9.45841C113.035 9.07493 112.3 8.85395 111.592 8.59396C110.753 8.28198 109.889 8.022 109.109 7.57352C108.485 7.21604 107.913 6.72857 107.556 6.09811C107.166 5.42215 107.036 4.6227 107.062 3.84925C107.088 3.12779 107.315 2.41284 107.75 1.83437C108.238 1.17141 108.959 0.709939 109.72 0.430456L109.713 0.462954Z" fill="black"/>
<path fill-rule="evenodd" clip-rule="evenodd" d="M58.8411 0.111816C62.1689 3.28362 65.4902 6.46193 68.8245 9.63374C68.8245 6.53343 68.8245 3.43962 68.8245 0.339303C69.6174 0.339303 70.4104 0.339303 71.2033 0.339303C71.2033 5.279 71.2033 10.2122 71.2033 15.1519C68.961 12.968 66.7186 10.7907 64.4762 8.6133C63.3908 7.56687 62.3184 6.50743 61.2264 5.46749C61.2199 8.6198 61.2264 11.7656 61.2264 14.9179C60.4335 14.9179 59.6405 14.9179 58.8476 14.9179C58.8476 9.98472 58.8476 5.05152 58.8476 0.118316L58.8411 0.111816Z" fill="black"/>
<path fill-rule="evenodd" clip-rule="evenodd" d="M0 0.339335C1.27392 0.339335 2.54785 0.339335 3.82177 0.339335C4.71871 0.345835 5.61566 0.300337 6.50611 0.456328C7.34455 0.599319 8.1895 0.898301 8.83947 1.46377C9.37243 1.91874 9.74291 2.5492 9.8989 3.22516C10.0744 3.98561 10.0744 4.80456 9.8274 5.55202C9.56742 6.35797 8.97596 7.06643 8.183 7.37841C8.313 7.4629 8.46899 7.5084 8.60548 7.5799C9.33343 7.95037 9.9054 8.59383 10.2174 9.34779C10.4579 9.91325 10.5294 10.5437 10.4774 11.1547C10.4189 11.9411 10.1654 12.7341 9.65841 13.3515C9.08645 14.06 8.2415 14.4955 7.37055 14.7035C6.6231 14.892 5.84315 14.918 5.07619 14.905C3.38629 14.905 1.6899 14.905 0 14.905C0 10.0562 0 5.19454 0 0.339335ZM2.40485 2.48421C2.40485 3.81012 2.40485 5.13604 2.40485 6.46196C3.3798 6.45546 4.35474 6.46196 5.32968 6.46196C5.94714 6.42947 6.6036 6.31247 7.07807 5.89C7.42905 5.58452 7.60454 5.11655 7.63054 4.66157C7.66304 4.1611 7.58504 3.61514 7.25356 3.21866C6.96108 2.86118 6.51261 2.67269 6.07063 2.5882C5.57016 2.48421 5.05669 2.4907 4.55622 2.4907C3.83477 2.4907 3.11981 2.4907 2.39835 2.4907L2.40485 2.48421ZM2.40485 8.51584C2.40485 9.93275 2.40485 11.3497 2.40485 12.7666C3.43829 12.7666 4.47823 12.7666 5.51167 12.7666C6.09663 12.7666 6.71409 12.6626 7.21456 12.3376C7.64354 12.0646 7.93602 11.6097 8.02701 11.1092C8.12451 10.5632 8.06601 9.97175 7.77353 9.49728C7.53954 9.1073 7.14957 8.83432 6.72059 8.69133C6.33062 8.55484 5.92114 8.50284 5.51167 8.50934C4.47823 8.50934 3.43829 8.50934 2.40485 8.50934V8.51584Z" fill="black"/>
<path fill-rule="evenodd" clip-rule="evenodd" d="M15.7615 0.339355C16.5869 0.339355 17.4059 0.339355 18.2313 0.339355C18.2313 2.8482 18.2313 5.35705 18.2313 7.8594C18.2313 8.74335 18.1988 9.64029 18.4133 10.5047C18.5823 11.2067 18.9333 11.8957 19.5248 12.3376C20.1097 12.7731 20.8572 12.9356 21.5721 12.9356C22.3001 12.9356 23.067 12.7861 23.6585 12.3311C24.1525 11.9607 24.484 11.4082 24.6724 10.8297C24.8934 10.1408 24.9519 9.41281 24.9454 8.69135C24.9454 5.90952 24.9454 3.12769 24.9454 0.345855C25.7709 0.345855 26.5898 0.345855 27.4153 0.345855C27.4153 3.24468 27.4153 6.1435 27.4153 9.03583C27.4348 10.2318 27.2333 11.4537 26.6548 12.5131C26.1609 13.4361 25.3419 14.1835 24.38 14.606C23.288 15.0935 22.0661 15.217 20.8832 15.1195C20.0577 15.048 19.2323 14.8465 18.4978 14.45C17.9584 14.164 17.4709 13.7805 17.0809 13.3126C16.6129 12.7601 16.2815 12.1036 16.0735 11.4212C15.833 10.6347 15.7485 9.80928 15.755 8.99033C15.755 6.11101 15.755 3.22518 15.755 0.345855L15.7615 0.339355Z" fill="black"/>
<path fill-rule="evenodd" clip-rule="evenodd" d="M49.3644 0.339507C50.1834 0.339507 51.0088 0.339507 51.8278 0.339507C51.8278 5.19471 51.8278 10.0499 51.8278 14.9051C51.0023 14.9181 50.1769 14.9051 49.3579 14.9051C49.3579 10.0499 49.3579 5.18821 49.3579 0.333008L49.3644 0.339507Z" fill="black"/>
<path fill-rule="evenodd" clip-rule="evenodd" d="M77.7742 0.339507C80.7121 0.346007 83.6434 0.339507 86.5812 0.339507C86.5812 1.07396 86.5812 1.80192 86.5812 2.53637C84.4493 2.53637 82.324 2.53637 80.1921 2.53637C80.1921 3.6998 80.1921 4.86323 80.1921 6.02016C82.103 6.02016 84.0074 6.02016 85.9183 6.02016C85.9183 6.74162 85.9183 7.46308 85.9183 8.18453C84.0074 8.18453 82.103 8.18453 80.1921 8.18453C80.1921 9.68594 80.1921 11.1874 80.1921 12.6888C82.3175 12.6888 84.4493 12.6888 86.5747 12.6888C86.5747 13.4297 86.5747 14.1707 86.5747 14.9116C83.6369 14.9116 80.7056 14.9116 77.7677 14.9116C77.7547 10.9729 77.7677 7.0341 77.7677 3.09534C77.7677 2.1724 77.7612 1.24945 77.7677 0.333008L77.7742 0.339507Z" fill="black"/>
<path fill-rule="evenodd" clip-rule="evenodd" d="M19.2064 22.2368C22.5082 25.3631 25.8101 28.4894 29.1184 31.6157C29.1184 28.5674 29.1184 25.5191 29.1184 22.4708C29.9048 22.4708 30.6913 22.4708 31.4777 22.4708C31.4777 27.326 31.4777 32.1812 31.4777 37.0299C28.1694 33.8581 24.8741 30.6733 21.5723 27.5015C21.5723 30.6018 21.5723 33.7021 21.5723 36.8024C20.7794 36.8024 19.9929 36.8024 19.2 36.8024C19.2 31.9472 19.2 27.092 19.2 22.2368H19.2064Z" fill="black"/>
<path fill-rule="evenodd" clip-rule="evenodd" d="M39.8816 22.75C40.8175 22.321 41.864 22.1845 42.8844 22.23C44.2493 22.282 45.6143 22.646 46.7712 23.3869C46.7712 24.2254 46.7712 25.0703 46.7712 25.9088C46.1927 25.4733 45.5753 25.0833 44.9058 24.8104C44.0153 24.4464 43.0404 24.2969 42.085 24.3749C41.63 24.4204 41.1685 24.5244 40.7785 24.7584C40.4796 24.9338 40.2326 25.2003 40.1156 25.5318C39.9271 26.0843 40.0181 26.7667 40.4536 27.1827C40.7915 27.5207 41.2335 27.7027 41.669 27.8717C42.5399 28.1901 43.4044 28.4956 44.2753 28.8141C44.9643 29.0676 45.6402 29.3926 46.2057 29.8735C46.7582 30.335 47.1742 30.9655 47.3561 31.6674C47.5381 32.3759 47.5771 33.1298 47.4211 33.8448C47.2782 34.5403 46.9142 35.1837 46.3942 35.6647C45.8482 36.1847 45.1593 36.5291 44.4378 36.7436C43.5409 37.0101 42.5919 37.0556 41.6625 37.0036C40.7006 36.9386 39.7451 36.7371 38.8482 36.3601C38.4647 36.1912 38.0877 36.0092 37.7497 35.7622C37.7562 34.9107 37.7497 34.0593 37.7497 33.2078C39.0107 34.2218 40.5966 34.8587 42.2215 34.8652C42.9169 34.8717 43.6384 34.8002 44.2623 34.4623C44.6198 34.2673 44.9253 33.9423 45.0423 33.5458C45.1593 33.1493 45.1528 32.7139 45.0033 32.3239C44.8473 31.9209 44.4963 31.6284 44.1258 31.4204C43.4954 31.0695 42.7934 30.8615 42.1175 30.608C41.344 30.322 40.5511 30.088 39.8231 29.6916C39.1666 29.3471 38.5622 28.8726 38.1657 28.2356C37.7692 27.5987 37.6132 26.8317 37.6262 26.0908C37.6262 25.3823 37.8212 24.6739 38.2242 24.0889C38.6272 23.4909 39.2186 23.049 39.8686 22.75H39.8816Z" fill="black"/>
<path fill-rule="evenodd" clip-rule="evenodd" d="M9.74292 22.4707C10.5684 22.4707 11.3873 22.4707 12.2128 22.4707C12.2128 27.2479 12.2128 32.0251 12.2128 36.8023C11.3873 36.8023 10.5684 36.8023 9.74292 36.8023C9.74292 32.0251 9.74292 27.2479 9.74292 22.4707Z" fill="black"/>
<path fill-rule="evenodd" clip-rule="evenodd" d="M53.8428 22.4707C54.6617 22.4707 55.4807 22.4707 56.2996 22.4707C56.2996 27.2479 56.2996 32.0251 56.2996 36.8023C55.4807 36.8023 54.6617 36.8023 53.8428 36.8023C53.8428 32.0251 53.8428 27.2479 53.8428 22.4707Z" fill="black"/>
<path fill-rule="evenodd" clip-rule="evenodd" d="M63.4426 22.4707C65.334 22.4707 67.2319 22.4707 69.1233 22.4707C70.5922 22.4902 72.0936 22.8737 73.296 23.7446C74.31 24.4661 75.0704 25.5255 75.4929 26.6954C75.8439 27.6639 75.9869 28.7038 75.9804 29.7308C75.9674 31.1997 75.6294 32.7011 74.8104 33.9425C74.1345 34.9824 73.1205 35.7949 71.9701 36.2564C71.0667 36.6203 70.0982 36.7893 69.1298 36.8023C67.2319 36.8023 65.3405 36.8023 63.4426 36.8023C63.4426 32.0251 63.4426 27.2479 63.4426 22.4707ZM65.8865 24.6286C65.8865 27.9629 65.8865 31.2972 65.8865 34.6315C66.6599 34.6315 67.4399 34.6315 68.2133 34.6315C68.6878 34.6315 69.1688 34.651 69.6432 34.586C70.5467 34.482 71.4436 34.1375 72.1066 33.5005C72.6981 32.9481 73.088 32.2071 73.2895 31.4337C73.491 30.6667 73.543 29.8673 73.491 29.0808C73.4455 28.3723 73.296 27.6639 73.0035 27.0204C72.7176 26.3965 72.2821 25.8375 71.7231 25.441C71.0797 24.9731 70.2932 24.7326 69.5068 24.6611C69.0323 24.6091 68.5578 24.6351 68.0833 24.6286C67.3489 24.6286 66.6144 24.6286 65.8865 24.6286Z" fill="black"/>
<path fill-rule="evenodd" clip-rule="evenodd" d="M81.1347 22.4707C84.053 22.4707 86.9713 22.4707 89.8896 22.4707C89.8896 23.1922 89.8896 23.9071 89.8896 24.6286C87.7773 24.6286 85.6584 24.6286 83.546 24.6286C83.546 25.779 83.546 26.9229 83.546 28.0734C85.4374 28.0734 87.3353 28.0734 89.2267 28.0734C89.2267 28.7818 89.2267 29.4838 89.2267 30.1922C87.3288 30.2052 85.4374 30.1922 83.5395 30.1922V34.6315C85.6519 34.6315 87.7708 34.6315 89.8831 34.6315C89.8831 35.3594 89.8831 36.0809 89.8831 36.8088C86.9648 36.8088 84.0465 36.8088 81.1282 36.8088C81.1282 32.0316 81.1282 27.2544 81.1282 22.4772L81.1347 22.4707Z" fill="black"/>
<path fill-rule="evenodd" clip-rule="evenodd" d="M97.1887 22.4707C98.9761 22.4707 100.77 22.4707 102.557 22.4707C103.448 22.4902 104.351 22.6332 105.157 23.0232C105.794 23.3287 106.353 23.8031 106.724 24.4076C107.166 25.116 107.341 25.9675 107.328 26.7929C107.335 27.6379 107.192 28.5153 106.756 29.2563C106.431 29.8088 105.918 30.2442 105.333 30.5107C104.91 30.7122 104.449 30.8292 103.987 30.9007C105.716 32.8701 107.445 34.833 109.168 36.8023C108.238 36.8023 107.309 36.8023 106.379 36.8023C104.702 34.8655 103.032 32.9221 101.355 30.9917C100.783 30.9917 100.211 30.9917 99.6391 30.9917C99.6391 32.9286 99.6391 34.8655 99.6391 36.8088C98.8266 36.8088 98.0077 36.8088 97.1952 36.8088C97.1952 32.0316 97.1952 27.2544 97.1952 22.4772L97.1887 22.4707ZM99.6326 24.5831C99.6326 26.039 99.6326 27.5014 99.6326 28.9573H102.466C103.11 28.9443 103.786 28.7753 104.267 28.3333C104.592 28.0344 104.8 27.6184 104.865 27.1764C104.949 26.624 104.871 26.0325 104.566 25.558C104.28 25.103 103.786 24.8171 103.279 24.6871C102.759 24.5506 102.219 24.5831 101.693 24.5766C101.01 24.5766 100.322 24.5766 99.6391 24.5766L99.6326 24.5831Z" fill="black"/>
</g>
</svg>
