<svg width="121" height="47" viewBox="0 0 121 47" fill="none" xmlns="http://www.w3.org/2000/svg">
<g id="Frame 427320713">
<path id="path4764" d="M23.1267 0.0292969C17.698 0.0292969 12.7096 1.90751 8.76695 5.0441H37.4865C33.5439 1.90751 28.5554 0.0292969 23.1267 0.0292969ZM7.4658 6.15544C6.19953 7.32519 5.06403 8.63449 4.08464 10.0589H42.1675C41.1881 8.63449 40.0539 7.32519 38.7877 6.15544H7.4658ZM3.36337 11.1689C2.61632 12.3994 1.98516 13.7065 1.47579 15.0737H6.09789C4.67614 11.291 3.71681 11.1742 3.71681 11.1742C3.71882 11.1728 3.7215 11.1715 3.72599 11.1688L3.36337 11.1689ZM10.7972 11.1703C12.0206 12.097 12.967 13.5135 13.7176 15.0737H19.5885V11.1703H10.7972ZM26.4686 11.1703V15.0737H32.278L34.036 11.1703H26.4686ZM42.5223 11.1703L40.7643 15.0737H44.7803C44.2709 13.7074 43.6385 12.4008 42.8914 11.1703H42.5223ZM1.09094 16.1851C0.694183 17.4433 0.407436 18.7481 0.229616 20.0885H7.82708C7.60189 19.547 7.39688 19.0003 7.20923 18.4588C7.17069 18.3443 7.13254 18.2376 7.09404 18.1276C6.88657 17.4065 6.6858 16.7641 6.4919 16.1851H1.09094ZM14.2124 16.1851C14.4341 16.7195 14.6348 17.2599 14.8198 17.7952C14.8601 17.9086 14.8978 18.0159 14.9363 18.1276H14.9376C15.1476 18.8559 15.351 19.5054 15.5476 20.0898H19.5885V16.1851H14.2124ZM26.4699 16.1851V20.0885H30.02L31.7779 16.1851H26.4699ZM40.2642 16.1851L38.5062 20.0885H46.0252C45.8473 18.7481 45.5597 17.4433 45.1638 16.1851H40.2642ZM0.110497 21.1999C0.0560086 21.8442 0.0214844 22.493 0.0214844 23.1516C0.0214844 23.8102 0.0560622 24.4604 0.110497 25.1046H11.2593C10.0288 24.1815 9.07831 22.7628 8.32319 21.1999H0.110497ZM15.9416 21.1999C17.3589 24.9611 18.3161 25.0798 18.3161 25.0798C18.2984 25.0873 18.2834 25.0945 18.2664 25.1046H19.5872V21.1999H15.9416ZM26.4699 21.1999V25.1046H27.7619L29.5199 21.1999H26.4699ZM38.0062 21.1999L36.2482 25.1046H46.1443C46.198 24.4612 46.232 23.8102 46.232 23.1516C46.232 22.493 46.198 21.8442 46.1443 21.1999H38.0062ZM0.229616 26.2159C0.407436 27.5555 0.695068 28.8612 1.09094 30.1194H19.5885V26.2159H0.229616ZM26.4699 26.2159V30.1194H45.1638C45.5606 28.8612 45.8469 27.5564 46.0238 26.2159H26.4699ZM1.47448 31.2307C1.98383 32.5971 2.61501 33.905 3.36207 35.1355H19.5872V31.2307H1.47448ZM26.4699 31.2307V35.1342H42.8914C43.6376 33.9037 44.2709 32.5971 44.7803 31.2307H26.4699ZM4.08464 36.2455C5.06494 37.6709 6.19953 38.9797 7.4658 40.1503H19.5885V36.2455H4.08464ZM26.4686 36.2455V40.1503H38.7877C40.0539 38.9797 41.1885 37.6709 42.1688 36.2455H26.4686ZM8.76695 41.259C12.7105 44.3965 17.698 46.2764 23.1267 46.2764C28.5554 46.2764 33.5443 44.3965 37.4878 41.259H8.76695Z" fill="#26509E"/>
<g id="Vector">
<path d="M82.1784 11.6973C80.695 11.6973 79.5382 12.7279 79.5382 14.2551C79.5382 15.7751 80.695 16.8142 82.1784 16.8142C83.4089 16.8142 84.0546 16.1236 84.3736 15.4855L83.2754 14.9672C83.1119 15.3595 82.6896 15.6858 82.1784 15.6858C81.4072 15.6858 80.8367 15.0629 80.8367 14.2551C80.8367 13.4472 81.4072 12.823 82.1784 12.823C82.6896 12.823 83.1118 13.1507 83.2754 13.543L84.3736 13.0246C84.0475 12.3723 83.4089 11.6973 82.1784 11.6973ZM55.0938 11.7784L53.2324 16.7238H54.6187L54.8713 15.9751H56.9238L57.1765 16.7238H58.5627L56.6947 11.7784H55.0938ZM59.6308 11.7784V16.7238H60.9058V13.3872L62.152 16.7238H62.7162L63.9689 13.3872V16.7238H65.2438V11.7784H63.4715L62.4334 14.581L61.4032 11.7784H59.6308ZM66.689 11.7784V16.7238H70.3149V15.6492H67.964V14.759H70.2626V13.6765H67.964V12.8531H70.3149V11.7784H66.689ZM71.6135 11.7784V16.7238H72.8884V15.0483H73.5403L74.3702 16.7238H75.8311L74.8231 14.9069C75.2834 14.7443 75.8088 14.2848 75.8088 13.4252C75.8088 12.5056 75.1862 11.7784 74.0888 11.7784H71.6135ZM77.0694 11.7784V16.7238H78.3457V11.7784H77.0694ZM86.7534 11.7784L84.892 16.7238H86.2782L86.5309 15.9751H88.5847L88.836 16.7238H90.2236L88.3543 11.7784H86.7534ZM91.1425 11.7784V16.7238H92.4175V13.7354L94.5093 16.7238H95.7397V11.7784H94.4569V14.6255L92.4541 11.7784H91.1425ZM72.8884 12.8531H73.8964C74.2306 12.8531 74.5116 13.069 74.5116 13.4094C74.5116 13.7508 74.2306 13.9658 73.8964 13.9658H72.8884V12.8531ZM55.8936 12.891L56.5913 14.9004H55.2038L55.8936 12.891ZM87.5545 12.891L88.2509 14.9004H86.8634L87.5545 12.891Z" fill="#231F20"/>
<path d="M71.6056 20.5946C70.1222 20.5946 68.9654 21.6252 68.9654 23.1524C68.9654 24.6724 70.1222 25.7115 71.6056 25.7115C72.8361 25.7115 73.4818 25.0209 73.8008 24.3828L72.7026 23.8645C72.539 24.2568 72.1168 24.5831 71.6056 24.5831C70.8344 24.5831 70.2639 23.9602 70.2639 23.1524C70.2639 22.3446 70.8344 21.7216 71.6056 21.7216C72.1168 21.7216 72.5389 22.048 72.7026 22.4403L73.8008 21.9219C73.4738 21.2696 72.8361 20.5946 71.6056 20.5946ZM83.35 20.5946C81.8371 20.5946 80.7032 21.6466 80.7032 23.1524C80.7032 24.6572 81.8371 25.7102 83.35 25.7102C84.8629 25.7102 85.989 24.6572 85.989 23.1524C85.989 21.6466 84.8629 20.5946 83.35 20.5946ZM93.8862 20.5946C92.3733 20.5946 91.2394 21.6466 91.2394 23.1524C91.2394 24.6572 92.3733 25.7102 93.8862 25.7102C95.3991 25.7102 96.5252 24.6572 96.5252 23.1524C96.5252 21.6466 95.3991 20.5946 93.8862 20.5946ZM100.151 20.5946C98.6757 20.5946 97.4742 21.5805 97.4742 23.1524C97.4742 24.7243 98.6757 25.7102 100.151 25.7102C101.086 25.7102 101.804 25.3321 102.338 24.7467V22.812H99.9508V23.871H101.086V24.2873C100.886 24.4507 100.536 24.5831 100.151 24.5831C99.3433 24.5831 98.7727 23.9602 98.7727 23.1524C98.7727 22.3437 99.3433 21.7216 100.151 21.7216C100.618 21.7216 100.997 21.9819 101.197 22.3081L102.264 21.7439C101.9 21.1282 101.233 20.5946 100.151 20.5946ZM108.751 20.5946C107.269 20.5946 106.112 21.6252 106.112 23.1524C106.112 24.6724 107.269 25.7115 108.751 25.7115C109.982 25.7115 110.627 25.0209 110.946 24.3828L109.85 23.8645C109.686 24.2568 109.262 24.5831 108.751 24.5831C107.98 24.5831 107.41 23.9602 107.41 23.1524C107.41 22.3446 107.98 21.7216 108.751 21.7216C109.262 21.7216 109.686 22.048 109.85 22.4403L110.946 21.9219C110.62 21.2696 109.982 20.5946 108.751 20.5946ZM60.8535 20.6024C59.5863 20.6024 58.8821 21.3208 58.8821 22.151C58.8821 23.3225 60.0232 23.5317 60.8391 23.6943C61.3654 23.806 61.6847 23.9168 61.6847 24.1983C61.6847 24.4361 61.4174 24.6211 60.9804 24.6211C60.3049 24.6211 59.757 24.3236 59.4005 23.9679L58.7263 24.9248C59.2232 25.3993 59.9194 25.7102 60.9202 25.7102C62.2473 25.7102 62.9819 25.0497 62.9819 24.0569C62.9819 22.9372 61.8543 22.7003 61.0393 22.5306C60.4907 22.4261 60.1872 22.3377 60.1872 22.0777C60.1872 21.8633 60.3496 21.6915 60.7723 21.6915C61.2102 21.6915 61.7509 21.8629 62.1664 22.2034L62.8641 21.2923C62.3378 20.84 61.647 20.6024 60.8535 20.6024ZM53.7587 20.6757V25.6212H55.0336V23.9456H56.2353C57.3479 23.9456 57.9553 23.2125 57.9553 22.3225C57.9553 21.4253 57.3479 20.6757 56.2353 20.6757H53.7587ZM74.9043 20.6757V25.6212H76.1793V23.6341H78.2344V25.6212H79.5094V20.6757H78.2344V22.5214H76.1793V20.6757H74.9043ZM87.1907 20.6757V25.6212H90.4527V24.5098H88.4656V20.6757H87.1907ZM103.644 20.6757V25.6212H104.918V20.6757H103.644ZM117.715 20.6757V25.6212H120.979V24.5098H118.992V20.6757H117.715ZM63.5749 20.6771L65.4507 23.6275V25.6212H66.7257V23.6275L68.5949 20.6771H67.1485L66.0895 22.5005L65.0135 20.6771H63.5749ZM113.326 20.6771L111.466 25.6212H112.852L113.104 24.8724H115.159L115.41 25.6212H116.798L114.928 20.6771H113.326ZM83.35 21.7216C84.1659 21.7216 84.6918 22.3437 84.6918 23.1524C84.6918 23.9531 84.1659 24.5831 83.35 24.5831C82.527 24.5831 82.0004 23.9531 82.0004 23.1524C82.0004 22.3437 82.527 21.7216 83.35 21.7216ZM93.8862 21.7216C94.7012 21.7216 95.2266 22.3437 95.2266 23.1524C95.2266 23.9531 94.7012 24.5831 93.8862 24.5831C93.0632 24.5831 92.5366 23.9531 92.5366 23.1524C92.5366 22.3437 93.0632 21.7216 93.8862 21.7216ZM55.0336 21.7517H56.0638C56.4051 21.7517 56.6581 21.9733 56.6581 22.3146C56.6581 22.648 56.4052 22.8631 56.0638 22.8631H55.0336V21.7517ZM114.127 21.7884L114.825 23.7977H113.438L114.127 21.7884Z" fill="#231F20"/>
<path d="M71.946 29.4919C70.4331 29.4919 69.2991 30.5439 69.2991 32.0497C69.2991 33.5545 70.4331 34.6075 71.946 34.6075C73.458 34.6075 74.5862 33.5545 74.5862 32.0497C74.5862 30.5439 73.458 29.4919 71.946 29.4919ZM78.0263 29.4919C76.5438 29.4919 75.386 30.5225 75.386 32.0497C75.386 33.5697 76.5438 34.6088 78.0263 34.6088C79.2568 34.6088 79.9025 33.9182 80.2215 33.2801L79.1232 32.7618C78.9597 33.1541 78.5374 33.4804 78.0263 33.4804C77.2551 33.4804 76.6846 32.8575 76.6846 32.0497C76.6846 31.2418 77.2551 30.6189 78.0263 30.6189C78.5374 30.6189 78.9596 30.9453 79.1232 31.3376L80.2215 30.8192C79.8953 30.1669 79.2568 29.4919 78.0263 29.4919ZM99.4979 29.4919C97.985 29.4919 96.8511 30.5439 96.8511 32.0497C96.8511 33.5545 97.985 34.6075 99.4979 34.6075C101.011 34.6075 102.138 33.5545 102.138 32.0497C102.138 30.5439 101.011 29.4919 99.4979 29.4919ZM61.2252 29.4997C59.9581 29.4997 59.2525 30.2181 59.2525 31.0483C59.2525 32.2198 60.395 32.429 61.2108 32.5916C61.7372 32.7033 62.0551 32.8141 62.0551 33.0956C62.0551 33.3333 61.7892 33.5184 61.3522 33.5184C60.6766 33.5184 60.1288 33.2208 59.7722 32.8652L59.0968 33.8221C59.5936 34.2975 60.2911 34.6075 61.292 34.6075C62.619 34.6075 63.3536 33.947 63.3536 32.9542C63.3536 31.8345 62.2261 31.5976 61.4111 31.4279C60.8624 31.3233 60.5576 31.235 60.5576 30.975C60.5576 30.7606 60.7201 30.5888 61.1427 30.5888C61.5806 30.5888 62.1213 30.7602 62.5368 31.1006L63.2345 30.1896C62.7082 29.7373 62.0187 29.4997 61.2252 29.4997ZM66.274 29.4997C65.006 29.4997 64.3014 30.2181 64.3014 31.0483C64.3014 32.2198 65.4434 32.429 66.2583 32.5916C66.7856 32.7033 67.1039 32.8141 67.1039 33.0956C67.1039 33.3333 66.8376 33.5184 66.3997 33.5184C65.725 33.5184 65.1767 33.2208 64.821 32.8652L64.1456 33.8221C64.6425 34.2975 65.34 34.6075 66.3408 34.6075C67.6678 34.6075 68.4025 33.947 68.4025 32.9542C68.4025 31.8345 67.2749 31.5976 66.4599 31.4279C65.9113 31.3233 65.6078 31.235 65.6078 30.975C65.6078 30.7606 65.7702 30.5888 66.1929 30.5888C66.6299 30.5888 67.1714 30.7602 67.587 31.1006L68.2834 30.1896C67.757 29.7373 67.0675 29.4997 66.274 29.4997ZM81.325 29.573V34.5184H82.5999V29.573H81.325ZM89.1764 29.573V30.6857H90.5639V34.5198H91.8389V30.6857H93.2173V29.573H89.1764ZM94.3823 29.573V34.5184H95.6573V29.573H94.3823ZM103.339 29.573V34.5198H104.613V31.5313L106.705 34.5198H107.936V29.573H106.653V32.4214L104.651 29.573H103.339ZM55.0938 29.5744L53.2324 34.5184H54.6187L54.8713 33.7697H56.9238L57.1765 34.5184H58.5627L56.6947 29.5744H55.0938ZM85.5295 29.5744L83.6681 34.5184H85.0556L85.307 33.7697H87.3608L87.6134 34.5184H88.9997L87.1317 29.5744H85.5295ZM71.946 30.6189C72.7609 30.6189 73.2877 31.241 73.2877 32.0497C73.2877 32.8504 72.7609 33.4804 71.946 33.4804C71.1229 33.4804 70.5964 32.8504 70.5964 32.0497C70.5964 31.241 71.1229 30.6189 71.946 30.6189ZM99.4979 30.6189C100.314 30.6189 100.84 31.241 100.84 32.0497C100.84 32.8504 100.314 33.4804 99.4979 33.4804C98.6749 33.4804 98.1483 32.8504 98.1483 32.0497C98.1483 31.241 98.6749 30.6189 99.4979 30.6189ZM55.8936 30.6857L56.5913 32.695H55.2038L55.8936 30.6857ZM86.3306 30.6857L87.027 32.695H85.6408L86.3306 30.6857Z" fill="#231F20"/>
</g>
</g>
</svg>
