<svg width="97" height="29" viewBox="0 0 97 29" fill="none" xmlns="http://www.w3.org/2000/svg">
<path id="Vector" d="M50.7408 9.61924C50.7408 9.61924 50.8518 7.38822 47.9213 7.23137H45.1018V12.4371H47.5012C47.5012 12.4371 50.7382 12.3911 50.7382 9.61924H50.7408ZM33.9824 28.1543H63.0176V0.154297H33.9824V28.1543ZM41.6032 4.09712H48.5C54.715 4.68395 54.3292 9.48403 54.3292 9.48403C54.3504 12.4127 51.8189 13.5188 51.8189 13.5188C56.2661 14.6681 56.1129 18.5433 56.1129 18.5433C56.1129 24.2439 49.5068 24.2223 49.5068 24.2223H41.6006V4.09712H41.6032ZM52.5033 18.2486C52.5033 18.2486 52.6143 15.5903 48.8039 15.6119H45.1045V21.1097H48.8039C48.8039 21.1097 52.5033 21.2909 52.5033 18.2486ZM17.269 9.61924C17.269 9.61924 17.3799 7.38822 14.4495 7.23137H11.63V12.4371H14.0293C14.0293 12.4371 17.2663 12.3911 17.2663 9.61924H17.269ZM19.0315 18.2513C19.0315 18.2513 19.1424 15.593 15.332 15.6146H11.6326V21.1124H15.332C15.332 21.1124 19.0315 21.2936 19.0315 18.2513ZM0.5 28.1543H29.5352V0.154297H0.5V28.1543ZM8.13138 4.09712H15.0282C21.2432 4.68395 20.8574 9.48403 20.8574 9.48403C20.8785 12.4127 18.3471 13.5188 18.3471 13.5188C22.7943 14.6681 22.641 18.5433 22.641 18.5433C22.641 24.2439 16.0349 24.2223 16.0349 24.2223H8.12874V4.09712H8.13138ZM67.4648 0.154297V28.1543H96.5V0.154297H67.4648ZM90.7527 22.6214C90.7527 22.6214 84.786 26.2505 77.8708 23.4543C77.8708 23.4543 72.0574 21.28 71.8381 14.1516C71.8381 14.1516 71.595 6.82302 79.3479 4.38918C79.3479 4.38918 81.4169 3.5779 85.1401 3.93757C85.1401 3.93757 87.3651 4.16202 90.5783 5.5385V9.25687C90.5783 9.25687 87.0321 7.02584 83.1134 6.97987C83.1134 6.97987 75.8017 6.83384 75.4714 14.1516C75.4714 14.1516 75.2072 20.8825 83.0235 21.2665C83.0235 21.2665 86.3055 21.6722 90.7527 18.7651V22.6187V22.6214Z" fill="#1A1A18"/>
</svg>
