<svg width="17" height="16" viewBox="0 0 17 16" fill="none" xmlns="http://www.w3.org/2000/svg">
<g id="Shield">
<g id="Union">
<path d="M10.9577 7.15136C11.2254 6.89855 11.2375 6.47662 10.9847 6.20894C10.7319 5.94126 10.3099 5.9292 10.0422 6.18201L7.67646 8.41636L6.95774 7.73757C6.69006 7.48476 6.26812 7.49681 6.01531 7.76449C5.76251 8.03217 5.77456 8.45411 6.04224 8.70692L7.12716 9.73156C7.43548 10.0228 7.91745 10.0227 8.22576 9.73156L10.9577 7.15136Z" fill="#4DB388"/>
<path fill-rule="evenodd" clip-rule="evenodd" d="M8.28332 14.5833C8.34999 14.5945 8.42221 14.6 8.49999 14.6C8.57777 14.6 8.64999 14.5945 8.71666 14.5833C8.78332 14.5722 8.84999 14.5556 8.91666 14.5333C10.4167 14.0333 11.6111 13.1083 12.5 11.7583C13.3889 10.4083 13.8333 8.95557 13.8333 7.40002V4.25002C13.8333 3.97224 13.7528 3.72224 13.5917 3.50002C13.4305 3.27779 13.2222 3.11668 12.9667 3.01668L8.96666 1.51668C8.8111 1.46113 8.65555 1.43335 8.49999 1.43335C8.34443 1.43335 8.18888 1.46113 8.03332 1.51668L4.03332 3.01668C3.77777 3.11668 3.56943 3.27779 3.40832 3.50002C3.24721 3.72224 3.16666 3.97224 3.16666 4.25002V7.40002C3.16666 8.95557 3.6111 10.4083 4.49999 11.7583C5.38888 13.1083 6.58332 14.0333 8.08332 14.5333C8.14999 14.5556 8.21666 14.5722 8.28332 14.5833ZM11.3667 11.0667C10.6111 12.1667 9.65555 12.9 8.49999 13.2667C7.34443 12.9 6.38888 12.1667 5.63332 11.0667C4.87777 9.96668 4.49999 8.74446 4.49999 7.40002V4.25002L8.49999 2.75002L12.5 4.25002V7.40002C12.5 8.74446 12.1222 9.96668 11.3667 11.0667Z" fill="#4DB388"/>
</g>
</g>
</svg>
