<svg width="251" height="239" viewBox="0 0 251 239" fill="none" xmlns="http://www.w3.org/2000/svg">
<g filter="url(#filter0_f_765_1997)">
<path d="M192.065 35.33C163.192 23.1187 129.235 60.2646 121.292 84.1473C121.292 84.1485 121.29 84.1567 121.29 84.1579C121.29 84.1587 121.289 84.1618 121.289 84.1615C98.7517 72.7672 50.2776 67.656 36.8447 95.4796C24.9615 117.451 36.6725 139.509 53.2385 157.841C92.5294 201.329 153.209 206.243 163.624 206.776C165.523 206.797 167.168 206.211 168.493 204.85C180.852 192.147 216.743 150.088 218.89 93.6464C219.85 68.3783 214.814 43.6609 192.065 35.33Z" fill="url(#paint0_linear_765_1997)" fill-opacity="0.16"/>
</g>
<mask id="mask0_765_1997" style="mask-type:alpha" maskUnits="userSpaceOnUse" x="7" y="45" width="235" height="166">
<ellipse cx="124.5" cy="128.358" rx="117" ry="82.5" fill="url(#paint1_radial_765_1997)"/>
</mask>
<g mask="url(#mask0_765_1997)">
<path d="M56.1981 146.21C56.1981 146.21 58.9397 151.686 59.5968 159.381C60.2575 167.073 58.1877 175.783 58.1877 175.783C58.1877 175.783 48.4663 166.507 49.8571 160.151C51.248 153.796 56.1981 146.21 56.1981 146.21Z" fill="black"/>
<path d="M12.3479 155.205C12.3479 155.205 37.4016 157.14 51.2481 153.792C65.0946 150.448 65.6057 150.386 67.1791 149.13C68.7525 147.874 79.3245 141.935 82.7815 140.329C86.2386 138.723 89.2832 138.427 93.1272 137.08C96.9712 135.733 102.268 132.287 104.02 132.082C105.769 131.878 106.485 135.598 104.276 138.23C102.067 140.862 101.231 141.238 95.5256 144.056C89.8198 146.874 90.1191 148.196 90.1191 148.196C90.1191 148.196 94.8539 150.649 96.7303 151.335C98.6067 152.021 102.487 150.357 102.487 150.357C102.487 150.357 103.502 148.845 104.634 148.495C105.765 148.141 105.893 148.878 105.893 148.878C105.893 148.878 111.23 146.987 111.902 146.195C111.902 146.195 111.884 142.22 113.088 141.128C114.293 140.037 115.527 139.555 116.213 139.595C116.9 139.639 117.294 142.61 117.294 142.61C117.294 142.61 119.597 139.632 120.623 138.989C121.649 138.347 123.266 138.368 123.266 138.368C123.266 138.368 124.39 136.518 125.997 136.466C127.603 136.415 129.359 137.591 129.388 138.033C129.417 138.474 127.804 140.646 126.168 142.859C124.533 145.071 121.488 150.05 120.853 151.01C120.218 151.967 118.59 153.383 118.042 153.774C118.042 153.774 117.418 159.063 117.239 160.451C117.06 161.838 115.68 163.145 114.508 163.94C113.34 164.736 110.314 166.193 109.792 167.043C109.266 167.89 109.252 168.814 107.233 170.062C105.218 171.315 97.7889 173.224 94.2698 173.855C90.7507 174.487 85.242 173.468 81.0548 173.928C76.8676 174.388 70.2346 171.625 61.4696 173.041C52.7083 174.458 19.0247 182.993 19.0247 182.993L12.3516 155.208L12.3479 155.205Z" fill="#F7E8E0"/>
<path d="M62.4515 164.817C62.4515 164.817 62.4368 164.817 62.4332 164.817C62.3346 164.806 62.2616 164.714 62.2726 164.616C62.5865 161.655 62.6486 158.647 62.4515 155.679C62.4442 155.577 62.5208 155.493 62.623 155.486C62.7216 155.475 62.8092 155.555 62.8165 155.657C63.0173 158.647 62.9552 161.677 62.6376 164.66C62.6267 164.755 62.55 164.824 62.4551 164.824L62.4515 164.817Z" fill="black"/>
<path d="M87.1694 165.342C87.1037 165.342 87.0416 165.306 87.0088 165.247C85.7749 162.933 84.2124 160.275 81.9783 158.143C79.6785 155.946 76.9552 154.661 74.3012 154.518C74.199 154.515 74.1223 154.427 74.1296 154.325C74.1333 154.223 74.2209 154.139 74.3231 154.153C77.061 154.299 79.8683 155.621 82.2302 157.881C84.4972 160.049 86.0815 162.736 87.33 165.076C87.3775 165.163 87.3446 165.277 87.2533 165.324C87.2241 165.339 87.1949 165.346 87.1694 165.346V165.342Z" fill="black"/>
<path d="M87.9397 168.767C87.9397 168.767 87.9251 168.767 87.9178 168.767C87.8193 168.756 87.7462 168.664 87.7572 168.566C87.9251 167.047 88.3997 165.536 89.1298 164.192C89.5861 163.356 90.1447 162.575 90.6849 161.816L95.511 155.051C95.5694 154.971 95.6825 154.949 95.7665 155.008C95.8468 155.066 95.8687 155.179 95.8103 155.263L90.9843 162.028C90.4476 162.78 89.8964 163.554 89.451 164.368C88.7428 165.667 88.2829 167.135 88.1222 168.606C88.1113 168.701 88.0346 168.77 87.9397 168.77V168.767Z" fill="black"/>
<path d="M90.1118 148.382C90.0826 148.382 90.057 148.375 90.0278 148.364C88.3668 147.52 85.2018 146.732 85.169 146.721C85.0704 146.695 85.012 146.597 85.0339 146.498C85.0594 146.4 85.158 146.341 85.2566 146.363C85.388 146.396 88.4946 147.17 90.1921 148.035C90.2834 148.079 90.3162 148.192 90.2724 148.28C90.2396 148.342 90.1775 148.378 90.1081 148.378L90.1118 148.382Z" fill="black"/>
<path d="M89.1113 146.338C89.0456 146.338 88.9835 146.305 88.9507 146.243C88.7353 145.852 88.4725 145.494 88.1658 145.184C87.5343 144.541 86.7239 144.092 85.939 143.658C85.8514 143.611 85.8185 143.497 85.866 143.41C85.9134 143.322 86.0266 143.289 86.1142 143.337C86.921 143.782 87.757 144.246 88.425 144.925C88.7536 145.257 89.0383 145.64 89.2683 146.064C89.3157 146.151 89.2829 146.265 89.1953 146.312C89.1661 146.327 89.1369 146.334 89.1077 146.334L89.1113 146.338Z" fill="black"/>
<path d="M19.021 183.172C18.9407 183.172 18.8641 183.117 18.8458 183.033C18.8203 182.934 18.8787 182.836 18.9772 182.81C19.3131 182.726 52.7667 174.261 61.4367 172.859C66.8322 171.986 71.4319 172.691 75.1299 173.26C77.4407 173.614 79.4339 173.921 81.0329 173.746C83.0443 173.523 85.3588 173.644 87.5929 173.757C90.0716 173.885 92.4153 174.001 94.2369 173.676C97.6282 173.067 105.097 171.172 107.138 169.905C108.649 168.967 108.992 168.248 109.321 167.555C109.42 167.343 109.514 167.146 109.639 166.945C110.015 166.335 111.515 165.477 112.84 164.725C113.453 164.375 114.037 164.043 114.41 163.791C114.979 163.404 116.856 162.017 117.06 160.429C117.235 159.06 117.856 153.807 117.863 153.755C117.871 153.704 117.896 153.657 117.94 153.628C118.487 153.233 120.09 151.839 120.703 150.912C120.871 150.656 121.214 150.112 121.652 149.415C122.835 147.531 124.818 144.381 126.022 142.753L126.121 142.618C127.504 140.752 129.224 138.427 129.205 138.047C129.184 137.773 127.617 136.602 126 136.653C124.515 136.7 123.43 138.449 123.419 138.467C123.387 138.522 123.313 138.555 123.262 138.555C123.248 138.555 121.685 138.54 120.718 139.146C119.732 139.763 117.458 142.694 117.436 142.723C117.392 142.782 117.316 142.807 117.243 142.789C117.173 142.771 117.119 142.709 117.108 142.636C116.907 141.132 116.483 139.796 116.195 139.777C115.582 139.741 114.388 140.19 113.205 141.263C112.077 142.289 112.077 146.155 112.077 146.195C112.077 146.239 112.063 146.279 112.033 146.316C111.347 147.122 106.499 148.86 105.948 149.054C105.897 149.072 105.842 149.064 105.795 149.039C105.747 149.013 105.714 148.966 105.707 148.911C105.707 148.908 105.674 148.758 105.517 148.663C105.335 148.553 105.046 148.557 104.685 148.674C103.63 149.002 102.644 150.452 102.637 150.466C102.619 150.496 102.589 150.517 102.556 150.532C102.396 150.601 98.5847 152.219 96.6645 151.514C94.7991 150.831 90.2249 148.466 90.0315 148.364C89.984 148.338 89.9475 148.294 89.9365 148.243C89.9037 148.093 89.7686 146.699 95.4416 143.899L95.8249 143.709C101.177 141.066 102.002 140.661 104.134 138.12C105.572 136.408 105.765 134.148 105.123 132.955C104.969 132.67 104.623 132.203 104.039 132.272C103.181 132.371 101.396 133.301 99.3294 134.382C97.3398 135.419 95.0838 136.594 93.1855 137.259C91.5975 137.814 90.1483 138.19 88.7465 138.555C86.7569 139.073 84.8769 139.558 82.8581 140.5C79.2842 142.161 68.8108 148.068 67.2922 149.28C65.7918 150.477 65.3428 150.587 53.8728 153.354L51.2919 153.978C37.5768 157.293 12.5888 155.413 12.3369 155.395C12.2347 155.387 12.1617 155.3 12.169 155.197C12.1763 155.095 12.2639 155.015 12.3661 155.029C12.618 155.048 37.5476 156.924 51.2079 153.62L53.7888 152.996C65.1858 150.247 65.6312 150.138 67.0695 148.991C68.5991 147.772 79.12 141.836 82.7085 140.168C84.7564 139.215 86.6547 138.722 88.6625 138.2C90.057 137.839 91.499 137.463 93.0724 136.912C94.9451 136.255 97.1865 135.087 99.1651 134.053C101.264 132.958 103.079 132.013 104.002 131.907C104.597 131.841 105.108 132.148 105.448 132.779C106.149 134.079 105.955 136.518 104.415 138.35C102.232 140.949 101.399 141.362 95.9891 144.034L95.6058 144.224C90.9769 146.509 90.3856 147.779 90.3089 148.093C91.0208 148.458 95.1021 150.55 96.7923 151.167C98.4715 151.781 101.921 150.397 102.367 150.211C102.553 149.944 103.498 148.659 104.579 148.32C105.057 148.17 105.44 148.181 105.718 148.353C105.86 148.44 105.948 148.55 105.999 148.645C107.539 148.09 111.077 146.739 111.719 146.118C111.723 145.549 111.796 142.048 112.964 140.989C114.235 139.84 115.52 139.369 116.224 139.409C116.885 139.449 117.257 141.19 117.411 142.158C118.049 141.355 119.681 139.358 120.524 138.828C121.444 138.252 122.781 138.19 123.164 138.182C123.416 137.799 124.489 136.328 125.989 136.28C127.577 136.233 129.527 137.39 129.571 138.018C129.6 138.471 128.581 139.902 126.413 142.829L126.314 142.964C125.121 144.578 123.142 147.725 121.963 149.601C121.521 150.306 121.178 150.85 121.006 151.105C120.364 152.076 118.798 153.434 118.217 153.869C118.137 154.533 117.586 159.187 117.422 160.469C117.202 162.159 115.384 163.561 114.614 164.086C114.227 164.349 113.64 164.685 113.019 165.039C111.796 165.737 110.277 166.602 109.949 167.135C109.836 167.317 109.744 167.507 109.649 167.708C109.314 168.416 108.934 169.219 107.331 170.216C105.258 171.504 97.7159 173.421 94.3026 174.034C92.4408 174.37 90.0789 174.25 87.5783 174.122C85.3551 174.009 83.0589 173.892 81.0767 174.111C79.4303 174.293 77.4152 173.983 75.0788 173.625C71.41 173.063 66.8395 172.362 61.5024 173.224C52.847 174.622 19.4116 183.084 19.0721 183.172C19.0575 183.175 19.0429 183.179 19.0283 183.179L19.021 183.172Z" fill="black"/>
<path d="M98.143 164.667C98.0809 164.667 98.0225 164.638 97.986 164.579C97.9349 164.495 97.9604 164.382 98.0444 164.327C99.0483 163.707 102.575 162.67 103.279 162.466C103.44 161.4 104.583 159.567 104.849 159.147C104.615 158.622 103.433 155.924 102.816 154.274C102.122 152.412 102.29 150.426 102.297 150.342C102.305 150.244 102.396 150.171 102.494 150.178C102.593 150.185 102.67 150.276 102.659 150.375C102.659 150.393 102.494 152.365 103.159 154.146C103.834 155.964 105.207 159.06 105.221 159.089C105.247 159.147 105.24 159.209 105.207 159.264C105.192 159.286 103.706 161.568 103.626 162.619C103.619 162.696 103.568 162.761 103.495 162.78C103.455 162.791 99.2856 163.984 98.2342 164.634C98.205 164.652 98.1722 164.66 98.1393 164.66L98.143 164.667Z" fill="black"/>
<path d="M97.1027 167.65C97.0771 167.65 97.0479 167.642 97.0224 167.631C96.9311 167.587 96.8946 167.478 96.9384 167.387C96.9494 167.365 97.9788 165.196 98.2818 163.043C98.2964 162.944 98.3877 162.875 98.4862 162.886C98.5848 162.9 98.6542 162.991 98.6432 163.09C98.3329 165.302 97.3108 167.452 97.2669 167.544C97.2341 167.609 97.172 167.646 97.1027 167.646V167.65Z" fill="black"/>
<path d="M104.586 164.076C104.535 164.076 104.488 164.054 104.451 164.013L103.312 162.728C103.246 162.652 103.254 162.539 103.327 162.469C103.403 162.404 103.517 162.407 103.586 162.484L104.725 163.769C104.791 163.846 104.783 163.959 104.71 164.028C104.674 164.057 104.634 164.076 104.59 164.076H104.586Z" fill="black"/>
<path d="M105.736 159.564C105.736 159.564 105.7 159.564 105.681 159.556L105.002 159.344C104.907 159.315 104.853 159.213 104.882 159.114C104.911 159.016 105.013 158.965 105.112 158.994L105.791 159.206C105.886 159.235 105.941 159.337 105.911 159.436C105.886 159.512 105.816 159.564 105.736 159.564Z" fill="black"/>
<path d="M109.788 167.222C109.788 167.222 109.759 167.222 109.741 167.215C109.642 167.189 109.584 167.091 109.609 166.992C110.537 163.418 111.453 159.399 111.314 158.987C111.135 158.45 110.142 156.698 108.525 154.051C107.353 152.135 105.74 148.992 105.722 148.959C105.674 148.867 105.711 148.758 105.802 148.714C105.893 148.667 106.003 148.703 106.046 148.794C106.061 148.827 107.667 151.956 108.835 153.861C109.993 155.749 111.42 158.151 111.661 158.87C111.895 159.567 110.288 165.835 109.963 167.084C109.942 167.164 109.869 167.219 109.788 167.219V167.222Z" fill="black"/>
<path d="M110.77 157.676C110.77 157.676 110.734 157.676 110.715 157.669C110.621 157.64 110.566 157.537 110.595 157.442C110.61 157.391 112.194 152.211 112.442 150.919C112.694 149.612 111.727 146.283 111.716 146.246C111.687 146.148 111.741 146.049 111.84 146.02C111.935 145.991 112.037 146.045 112.066 146.144C112.106 146.283 113.07 149.597 112.8 150.988C112.548 152.299 111.008 157.337 110.942 157.548C110.916 157.625 110.847 157.676 110.767 157.676H110.77Z" fill="black"/>
<path d="M118.039 153.956C118.039 153.956 118.024 153.956 118.017 153.956C117.918 153.945 117.845 153.854 117.856 153.756C117.893 153.442 117.933 153.142 117.969 152.847C118.188 151.094 118.363 149.711 118.086 148.25C117.757 146.527 117.115 142.68 117.108 142.643C117.089 142.545 117.159 142.45 117.257 142.432C117.356 142.413 117.451 142.483 117.469 142.581C117.476 142.621 118.119 146.462 118.447 148.181C118.736 149.696 118.55 151.178 118.334 152.89C118.298 153.182 118.258 153.485 118.221 153.796C118.21 153.887 118.13 153.956 118.039 153.956Z" fill="black"/>
<path d="M117.659 144.98C117.604 144.98 117.553 144.958 117.516 144.914C117.454 144.837 117.465 144.72 117.542 144.658C117.564 144.64 119.637 142.946 120.525 141.672C121.43 140.373 123.102 138.281 123.116 138.259C123.178 138.182 123.295 138.168 123.372 138.23C123.452 138.292 123.463 138.409 123.401 138.485C123.383 138.507 121.722 140.588 120.824 141.88C119.908 143.198 117.86 144.87 117.772 144.943C117.739 144.972 117.699 144.983 117.659 144.983V144.98Z" fill="black"/>
<path d="M107.613 152.295C107.536 152.295 107.463 152.244 107.437 152.164C107.408 152.069 107.463 151.967 107.558 151.937C108.598 151.624 112.369 148.802 112.409 148.772C112.49 148.71 112.603 148.729 112.665 148.809C112.727 148.889 112.709 149.002 112.628 149.064C112.471 149.181 108.766 151.952 107.664 152.284C107.645 152.288 107.627 152.292 107.613 152.292V152.295Z" fill="black"/>
<path d="M58.1877 175.783C57.14 178.043 55.7272 180.233 53.3872 180.828C52.376 181.083 51.2918 181.003 50.3135 181.361C49.4483 181.679 48.7437 182.314 47.9917 182.847C46.1519 184.154 43.9214 184.898 41.669 184.957C39.7525 185.008 37.7994 184.581 35.9413 185.059C33.0975 185.789 31.2248 188.403 28.976 190.29C25.9607 192.82 20.4703 194.174 16.5277 193.941C13.6547 181.31 10.873 164.787 8 152.157C10.0881 151.715 11.9207 150.66 14.1439 149.506C17.444 147.801 20.6929 145.823 24.3435 145.137C26.9536 144.647 29.6915 144.855 32.1958 145.735C33.9773 146.359 35.6711 147.323 37.5475 147.546C40.1066 147.845 42.5853 146.735 45.0786 146.086C48.7109 145.144 52.5878 145.191 56.1982 146.21C54.8402 149.265 53.4603 152.503 52.1789 156.179C51.6824 157.61 51.2188 159.089 51.2371 160.604C51.2517 162.166 51.781 163.674 52.3651 165.12C53.8837 168.883 55.8404 172.468 58.1877 175.783Z" fill="#C2E1FF"/>
<path d="M55.5811 178.787C48.9918 172.245 45.9874 162.67 47.7506 153.544C48.2654 150.868 49.1598 148.28 50.4155 145.863C50.7404 145.239 49.7949 144.684 49.4701 145.312C47.1666 149.747 46.0093 154.756 46.1627 159.753C46.305 164.51 47.6521 169.194 50.014 173.319C51.3209 175.604 52.9417 177.71 54.8108 179.565C55.3109 180.061 56.0848 179.287 55.5847 178.791L55.5811 178.787Z" fill="#0080FF"/>
<path d="M50.0213 180.551C44.1403 173.585 41.03 164.543 41.3659 155.435C41.4681 152.682 41.8843 149.952 42.5925 147.287C42.775 146.604 41.7163 146.316 41.5375 146.995C39.0405 156.373 40.2452 166.5 44.9069 175.016C46.1371 177.261 47.5974 179.368 49.2474 181.324C49.7037 181.865 50.474 181.087 50.0213 180.551Z" fill="#0080FF"/>
<path d="M237.86 45.7869L242.248 88.8816C241.686 89.1773 241.08 89.3999 240.452 89.5606C238.842 89.9767 237.083 89.9913 235.411 89.8672C234.443 89.7978 233.465 89.6883 232.483 89.608C231.622 89.5387 230.764 89.4912 229.909 89.5095C228.909 89.5277 227.92 89.6372 226.953 89.9037C224.649 90.5353 222.645 92.0283 220.323 92.5832C219.896 92.6854 219.465 92.7548 219.027 92.8022C216.618 93.0687 214.088 92.6964 211.854 93.6236C211.671 93.7003 211.492 93.7842 211.321 93.8755C209.357 94.8904 207.864 96.7339 205.838 97.6575C204.418 98.3036 202.782 98.4204 201.267 98.0481C200.413 97.84 199.599 97.4786 198.883 96.9675C197.752 97.6538 196.62 98.3328 195.488 99.0155C194.799 98.508 194.145 97.9568 193.524 97.3691C189.231 93.306 186.618 87.4651 186.53 81.5513C186.519 81.1205 186.53 80.6897 186.548 80.2626C188.078 79.4924 189.607 78.7184 191.137 77.9445C191.283 75.3234 191.71 72.4906 193.623 70.8588C193.758 70.7456 193.9 70.6361 194.054 70.5303C195.824 69.3219 198.179 69.4168 200.147 68.5699C202.1 67.7303 203.483 66.0766 204.911 64.4594C205.527 63.7585 206.152 63.0686 206.838 62.4516C207.126 62.1888 207.429 61.9405 207.743 61.7105C210.416 59.7612 213.887 59.3158 216.822 57.7862C217.246 57.5672 217.658 57.3226 218.056 57.0634C220.783 55.2965 222.973 52.7485 225.554 50.737C229.088 47.9845 233.41 46.2724 237.864 45.7905L237.86 45.7869Z" fill="#FFC2E1"/>
<path d="M186.534 81.5476C185.639 82.2668 184.745 82.9859 183.85 83.7087C182.051 85.1616 180.244 86.6146 178.243 87.7754C172.888 90.8894 166.558 91.7034 160.513 93.0614C159.019 93.4009 157.388 93.8755 156.482 95.0692C155.245 95.4708 154.19 96.3688 153.423 97.4311C152.649 98.508 152.142 99.7492 151.722 101.009C148.75 103.283 144.706 104.028 141.968 106.612C141.197 107.339 140.559 108.186 139.949 109.054C139.091 110.281 138.295 111.551 137.499 112.818C136.076 115.092 134.645 117.367 133.221 119.637C132.892 120.167 132.549 120.718 132.48 121.335C132.462 121.488 132.462 121.645 132.52 121.791C132.633 122.072 132.94 122.218 133.232 122.306C134.594 122.711 136.09 122.324 137.31 121.59C138.525 120.857 139.511 119.802 140.475 118.761C141.643 117.505 142.807 116.253 143.976 115.001C143.205 117.48 142.508 119.984 141.884 122.507C141.741 123.084 141.599 123.664 141.621 124.259C141.639 124.821 141.796 125.365 141.931 125.913C142.165 126.865 142.318 127.84 142.391 128.822C142.42 129.224 142.453 129.665 142.734 129.95C142.972 130.191 143.34 130.264 143.68 130.231C144.852 130.118 145.644 128.994 146.097 127.91C146.589 126.716 146.874 125.434 146.922 124.142C146.94 123.671 146.929 123.193 147.027 122.733C147.115 122.324 147.283 121.934 147.451 121.55C148.557 119.042 149.67 116.527 151.01 114.14C152.339 118.728 152.66 123.565 153.828 128.205C153.974 128.782 154.135 129.37 154.489 129.848C154.577 129.972 154.69 130.089 154.829 130.133C154.982 130.18 155.146 130.133 155.296 130.074C156.271 129.698 157.019 128.851 157.421 127.888C157.756 127.085 157.87 126.205 157.855 125.336C157.921 125.299 157.986 125.256 158.052 125.212C162.225 122.353 166.704 119.944 171.391 118.038C173.848 117.038 176.381 116.166 178.641 114.775C182.047 112.676 184.657 109.496 186.793 106.112C188.768 102.98 190.524 99.4864 193.524 97.3764C189.231 93.3133 186.618 87.4724 186.53 81.5586L186.534 81.5476ZM158.574 118.195C158.286 118.477 158.001 118.765 157.731 119.068C157.731 119.068 157.267 114.016 157.128 113.15L157.556 112.336C157.556 112.336 158.235 117.14 158.873 117.757L158.95 117.838C158.826 117.955 158.698 118.075 158.574 118.195ZM162.995 114.552C162.995 114.552 162.407 112.829 162.56 111.741C162.714 110.653 163.754 108.025 163.754 108.025C163.754 108.025 167.803 109.219 167.971 110.321L162.995 114.552Z" fill="#F7E8E0"/>
<path d="M187.381 81.8469C187.315 81.8469 187.253 81.8104 187.22 81.752C187.173 81.6644 187.205 81.5512 187.293 81.5038L190.889 79.5726C190.976 79.5252 191.09 79.558 191.137 79.6457C191.184 79.7333 191.152 79.8464 191.064 79.8939L187.468 81.825C187.439 81.8396 187.41 81.8469 187.381 81.8469Z" fill="black"/>
<path d="M197.953 86.0999C197.934 86.0999 197.912 86.0999 197.89 86.0889C194.773 84.9901 192.396 82.1755 191.838 78.9156C191.82 78.817 191.889 78.7221 191.988 78.7038C192.086 78.6856 192.181 78.755 192.199 78.8535C192.725 81.9382 195.061 84.7053 198.015 85.7458C198.11 85.7786 198.161 85.8845 198.128 85.9794C198.102 86.056 198.029 86.0999 197.956 86.0999H197.953Z" fill="black"/>
<path d="M198.15 94.0434C198.084 94.0434 198.022 94.0105 197.989 93.9485C196.576 91.4041 196.219 88.3339 197.007 85.5303C197.036 85.4318 197.135 85.377 197.233 85.4026C197.332 85.4281 197.387 85.5303 197.361 85.6289C196.598 88.3412 196.945 91.3091 198.31 93.7696C198.358 93.8572 198.329 93.9704 198.237 94.0178C198.208 94.0324 198.179 94.0397 198.15 94.0397V94.0434Z" fill="black"/>
<path d="M187.797 85.5486C187.735 85.5486 187.669 85.5157 187.636 85.4537C187.589 85.3661 187.618 85.2529 187.705 85.2054L191.853 82.9019C191.94 82.8545 192.05 82.8837 192.101 82.9713C192.148 83.0589 192.119 83.1721 192.031 83.2195L187.884 85.523C187.855 85.5376 187.826 85.5449 187.797 85.5449V85.5486Z" fill="black"/>
<path d="M188.998 87.7243C188.936 87.7243 188.874 87.6915 188.841 87.6331C188.79 87.5455 188.823 87.4359 188.906 87.3848C190.531 86.4539 192.141 85.4537 193.692 84.4169C193.776 84.3622 193.889 84.3841 193.944 84.468C193.999 84.552 193.977 84.6652 193.893 84.7199C192.334 85.764 190.717 86.7679 189.089 87.7024C189.06 87.717 189.031 87.728 188.998 87.728V87.7243Z" fill="black"/>
<path d="M189.918 89.9621C189.852 89.9621 189.786 89.9256 189.753 89.8599C189.71 89.7686 189.746 89.6591 189.837 89.6153L195.569 86.8226C195.66 86.7788 195.769 86.8153 195.813 86.9066C195.857 86.9978 195.821 87.1074 195.729 87.1512L189.998 89.9438C189.972 89.9548 189.947 89.9621 189.918 89.9621Z" fill="black"/>
<path d="M190.845 92.9008C190.783 92.9008 190.721 92.8679 190.688 92.8095C190.637 92.7219 190.666 92.6124 190.754 92.5613C192.451 91.572 194.203 90.6265 195.963 89.754C196.054 89.7102 196.164 89.7467 196.208 89.838C196.251 89.9292 196.215 90.0388 196.127 90.0826C194.375 90.955 192.63 91.8932 190.94 92.8789C190.911 92.8971 190.878 92.9044 190.849 92.9044L190.845 92.9008Z" fill="black"/>
<path d="M193.035 95.5767C192.984 95.5767 192.929 95.5548 192.893 95.511C192.831 95.4343 192.842 95.3175 192.918 95.2554C194.025 94.3464 195.204 93.4995 196.416 92.7402C196.503 92.6854 196.613 92.711 196.668 92.7986C196.722 92.8826 196.697 92.9957 196.609 93.0505C195.408 93.8025 194.244 94.6385 193.148 95.5402C193.116 95.5694 193.072 95.5803 193.032 95.5803L193.035 95.5767Z" fill="black"/>
<path d="M194.488 97.6866C194.437 97.6866 194.386 97.6647 194.353 97.6246C194.287 97.5479 194.294 97.4348 194.368 97.3654L197.007 95.0291C197.08 94.9633 197.197 94.9706 197.262 95.0437C197.328 95.1203 197.321 95.2335 197.248 95.3028L194.608 97.6392C194.576 97.6684 194.532 97.6866 194.488 97.6866Z" fill="black"/>
<path d="M158.95 118.024C158.903 118.024 158.855 118.006 158.819 117.965C158.749 117.892 158.753 117.776 158.826 117.706C159.206 117.349 162.732 114.527 162.882 114.41C162.962 114.348 163.075 114.359 163.137 114.439C163.199 114.519 163.188 114.633 163.108 114.695C163.072 114.724 159.443 117.626 159.074 117.973C159.038 118.006 158.994 118.024 158.95 118.024Z" fill="black"/>
<path d="M143.975 115.184C143.932 115.184 143.884 115.169 143.851 115.136C143.778 115.067 143.775 114.954 143.844 114.877C144.005 114.705 147.798 110.661 149.981 109.598C151.463 108.879 153.273 108.558 155.022 108.248C155.894 108.094 156.716 107.948 157.493 107.758C159.87 107.174 163.634 107.817 163.791 107.846C163.889 107.864 163.955 107.959 163.94 108.058C163.922 108.156 163.827 108.222 163.729 108.208C163.692 108.2 159.881 107.55 157.581 108.116C156.792 108.31 155.964 108.456 155.088 108.613C153.361 108.919 151.576 109.233 150.141 109.931C148.02 110.964 144.151 115.089 144.11 115.133C144.074 115.169 144.027 115.191 143.975 115.191V115.184Z" fill="black"/>
<path d="M151.01 114.315C150.981 114.315 150.955 114.308 150.93 114.297C150.838 114.253 150.802 114.143 150.846 114.052C150.926 113.888 152.839 110.036 154.244 109.252C154.332 109.204 154.441 109.233 154.493 109.321C154.54 109.409 154.511 109.522 154.423 109.569C153.12 110.296 151.196 114.173 151.174 114.213C151.141 114.278 151.079 114.315 151.01 114.315Z" fill="black"/>
<path d="M156.362 109.646C154.431 109.646 153.303 109.292 153.222 109.266C153.127 109.233 153.073 109.131 153.106 109.036C153.135 108.941 153.241 108.887 153.336 108.919C153.368 108.93 156.606 109.942 161.586 108.492C161.684 108.463 161.783 108.522 161.812 108.616C161.841 108.715 161.783 108.814 161.688 108.843C159.556 109.463 157.753 109.646 156.362 109.646Z" fill="black"/>
<path d="M157.555 112.523C157.526 112.523 157.501 112.515 157.475 112.504C157.384 112.46 157.347 112.351 157.395 112.26C157.406 112.238 158.545 109.956 158.775 109.23C158.804 109.135 158.91 109.08 159.005 109.109C159.1 109.138 159.154 109.241 159.125 109.339C158.888 110.091 157.771 112.325 157.723 112.42C157.691 112.482 157.628 112.523 157.559 112.523H157.555Z" fill="black"/>
<path d="M167.971 110.504C167.919 110.504 167.868 110.482 167.832 110.442C167.766 110.365 167.773 110.252 167.85 110.183C167.861 110.175 168.832 109.317 169.529 108.094C169.58 108.007 169.694 107.978 169.778 108.025C169.865 108.076 169.894 108.186 169.847 108.273C169.117 109.551 168.131 110.416 168.091 110.453C168.058 110.482 168.014 110.496 167.971 110.496V110.504Z" fill="black"/>
<path d="M151.722 101.191C151.66 101.191 151.598 101.158 151.565 101.1C151.514 101.012 151.543 100.899 151.631 100.852C151.722 100.801 153.839 99.5776 155.654 99.0191C155.748 98.9899 155.851 99.0446 155.88 99.1396C155.909 99.2345 155.854 99.3367 155.759 99.3659C153.985 99.9098 151.831 101.151 151.813 101.162C151.784 101.18 151.751 101.188 151.722 101.188V101.191Z" fill="black"/>
<path d="M156.482 95.2518C156.398 95.2518 156.322 95.1933 156.303 95.1094C156.282 95.0108 156.344 94.9123 156.442 94.894C156.512 94.8794 158.103 94.5399 158.983 94.6385C159.082 94.6494 159.155 94.7407 159.144 94.8392C159.133 94.9378 159.045 95.0108 158.943 94.9999C158.125 94.9086 156.533 95.2481 156.519 95.2481C156.504 95.2481 156.493 95.2518 156.479 95.2518H156.482Z" fill="black"/>
<path d="M157.859 125.511C157.84 125.511 157.818 125.511 157.8 125.5C155.581 124.752 155.121 122.948 155.402 121.631C155.712 120.181 157.548 118.966 157.629 118.915C157.713 118.86 157.826 118.885 157.88 118.969C157.935 119.053 157.913 119.166 157.829 119.221C157.811 119.232 156.041 120.404 155.759 121.707C155.497 122.934 155.924 124.485 157.917 125.153C158.012 125.186 158.063 125.288 158.03 125.383C158.005 125.46 157.935 125.507 157.859 125.507V125.511Z" fill="black"/>
<path d="M186.534 81.5476C185.639 82.2668 184.745 82.9859 183.85 83.7087C182.051 85.1616 180.244 86.6146 178.243 87.7754C172.888 90.8894 166.558 91.7034 160.513 93.0614C159.019 93.4009 157.388 93.8755 156.482 95.0692C155.245 95.4708 154.19 96.3688 153.423 97.4311C152.649 98.508 152.142 99.7492 151.722 101.009C148.75 103.283 144.706 104.028 141.968 106.612C141.197 107.339 140.559 108.186 139.949 109.054C139.091 110.281 138.295 111.551 137.499 112.818C136.076 115.092 134.645 117.367 133.221 119.637C132.892 120.167 132.549 120.718 132.48 121.335C132.462 121.488 132.462 121.645 132.52 121.791C132.633 122.072 132.94 122.218 133.232 122.306C134.594 122.711 136.09 122.324 137.31 121.59C138.525 120.857 139.511 119.802 140.475 118.761C141.643 117.505 142.807 116.253 143.976 115.001C143.205 117.48 142.508 119.984 141.884 122.507C141.741 123.084 141.599 123.664 141.621 124.259C141.639 124.821 141.796 125.365 141.931 125.913C142.165 126.865 142.318 127.84 142.391 128.822C142.42 129.224 142.453 129.665 142.734 129.95C142.972 130.191 143.34 130.264 143.68 130.231C144.852 130.118 145.644 128.994 146.097 127.91C146.589 126.716 146.874 125.434 146.922 124.142C146.94 123.671 146.929 123.193 147.027 122.733C147.115 122.324 147.283 121.934 147.451 121.55C148.557 119.042 149.67 116.527 151.01 114.14C152.339 118.728 152.66 123.565 153.828 128.205C153.974 128.782 154.135 129.37 154.489 129.848C154.577 129.972 154.69 130.089 154.829 130.133C154.982 130.18 155.146 130.133 155.296 130.074C156.271 129.698 157.019 128.851 157.421 127.888C157.756 127.085 157.87 126.205 157.855 125.336C157.921 125.299 157.986 125.256 158.052 125.212C162.225 122.353 166.704 119.944 171.391 118.038C173.848 117.038 176.381 116.166 178.641 114.775C182.047 112.676 184.657 109.496 186.793 106.112C188.768 102.98 190.524 99.4864 193.524 97.3764M158.57 118.206C158.282 118.487 157.997 118.776 157.727 119.079C157.727 119.079 157.264 114.027 157.125 113.161L157.552 112.347C157.552 112.347 158.231 117.151 158.87 117.768L158.946 117.849C158.822 117.965 158.695 118.086 158.57 118.206ZM162.991 114.563C162.991 114.563 162.404 112.84 162.557 111.752C162.71 110.664 163.751 108.036 163.751 108.036C163.751 108.036 167.799 109.23 167.967 110.332L162.991 114.563Z" stroke="black" stroke-width="0.35" stroke-linecap="round" stroke-linejoin="round"/>
<path d="M204.691 69.7016C202.95 72.3701 199.38 74.4364 196.255 72.9323C194.963 72.4322 194.109 71.6984 193.623 70.8588C193.758 70.7457 193.9 70.6361 194.054 70.5303C195.824 69.3219 198.179 69.4169 200.147 68.5699C202.1 67.7303 203.483 66.0766 204.911 64.4594C205.987 65.7115 206.192 67.5624 204.691 69.7016Z" fill="#FF0080"/>
<path d="M218.293 58.1075C218.779 65.8612 210.864 66.4599 206.838 62.4516C207.126 62.1888 207.429 61.9405 207.743 61.7106C210.415 59.7612 213.887 59.3158 216.822 57.7862C217.246 57.5672 217.658 57.3226 218.056 57.0634C218.173 57.3993 218.249 57.7461 218.293 58.1075Z" fill="#FF0080"/>
<path d="M229.913 89.5094C228.913 89.5277 227.923 89.6372 226.956 89.9037C224.652 90.5352 222.648 92.0283 220.327 92.5832C219.899 92.6854 219.469 92.7547 219.031 92.8022C215.968 90.8528 213.511 86.8737 215.537 83.6028C218.819 79.9304 225.47 81.9674 228.475 85.1069C229.73 86.6474 230.125 88.1697 229.913 89.5131V89.5094Z" fill="#FF0080"/>
<path d="M225.521 60.2101C223.875 56.9721 226.595 51.9855 229.5 50.2916C232.034 48.8642 235.662 49.8499 236.831 52.5878C239.141 58.3119 229.679 65.9963 225.525 60.2101H225.521Z" fill="#FF0080"/>
<path d="M240.456 89.5605C238.846 89.9767 237.086 89.9913 235.414 89.8672C234.447 89.7978 233.469 89.6883 232.487 89.608C234.224 87.5564 238.302 87.6768 240.456 89.5605Z" fill="#FF0080"/>
<path d="M241 76.5901L241.96 86.0305C237.568 88.2354 231.055 83.1027 231.702 78.6892C232.724 74.6517 237.513 74.6736 241 76.5901Z" fill="#FF0080"/>
<path d="M211.324 93.8719C209.36 94.8867 207.867 96.7303 205.841 97.6538C204.421 98.3 202.786 98.4168 201.271 98.0444C199.077 93.2367 203.713 83.9132 209.335 87.5455C211.229 89.002 211.751 91.4771 211.324 93.8719Z" fill="#FF0080"/>
<path d="M227.993 70.1251C227.708 73.4471 225.635 77.0027 222.502 78.3498C215.745 80.5109 214.796 71.2823 218.366 67.5186C221.338 63.5979 228.307 64.4777 227.993 70.1287V70.1251Z" fill="#FF0080"/>
<path d="M212.193 75.0825C215.694 80.4342 207.345 84.3658 202.892 83.2049C200.176 82.4894 198.854 78.8717 200.665 76.6558C203.341 73.7062 208.966 72.3446 212.193 75.0825Z" fill="#FF0080"/>
<path d="M239.375 60.6409L240.653 73.1806C238.393 73.8596 235.911 73.6953 233.991 72.3482C229.727 68.7086 235.159 62.0683 239.375 60.6409Z" fill="#FF0080"/>
<path d="M161.892 59.3596C163.243 59.3596 163.247 61.4587 161.892 61.4587C160.538 61.4587 160.538 59.3596 161.892 59.3596Z" fill="url(#paint2_linear_765_1997)"/>
<path d="M165.28 69.1175L163.301 67.9202L165.28 66.7264L166.426 63.0576L167.576 66.7228L169.555 67.9202L167.576 69.1139L166.426 72.7827L165.28 69.1175Z" fill="url(#paint3_linear_765_1997)"/>
<path d="M172.154 59.3596C173.505 59.3596 173.508 61.4587 172.154 61.4587C170.8 61.4587 170.8 59.3596 172.154 59.3596Z" fill="url(#paint4_linear_765_1997)"/>
<path d="M153.945 67.9202C155.296 67.9202 155.299 70.0192 153.945 70.0192C152.591 70.0192 152.591 67.9202 153.945 67.9202Z" fill="url(#paint5_linear_765_1997)"/>
<path d="M130.735 71.9248C128.168 74.2247 125.241 76.1193 122.09 77.5211C121.05 74.0275 120.568 70.366 120.681 66.7191C120.721 65.3575 120.97 63.7841 122.149 63.0978C123.525 62.2947 125.383 63.3168 126.048 64.7624C126.712 66.2117 126.526 67.891 126.325 69.468C127.227 68.6649 128.187 67.8289 129.373 67.5989C130.556 67.3616 132.002 67.9968 132.199 69.1869C132.378 70.2529 131.545 71.202 130.738 71.9248H130.735Z" fill="url(#paint6_linear_765_1997)"/>
<path d="M133.904 80.5547C134.564 80.5985 135.243 80.6022 135.875 80.3941V80.3904C136.499 80.1823 137.08 79.7187 137.262 79.0799C137.496 78.2841 137.054 77.4189 136.408 76.9042C135.762 76.3858 134.944 76.1448 134.148 75.9149C134.915 75.2431 135.714 74.5276 136.054 73.5639C136.397 72.6038 136.083 71.3261 135.134 70.9538C134.064 70.5339 132.958 71.4101 132.181 72.2534C130.359 74.2319 128.782 76.4332 127.493 78.7915L127.446 79.2222C129.519 79.9743 131.699 80.4269 133.904 80.5547Z" fill="url(#paint7_linear_765_1997)"/>
<path d="M118.513 70.1652C118.414 69.5994 118.276 69.0263 117.969 68.5371V68.5298C117.662 68.0479 117.151 67.6537 116.575 67.6318C115.852 67.5989 115.213 68.1501 114.913 68.8036C114.611 69.4607 114.578 70.1981 114.548 70.9173C113.822 70.4098 113.052 69.8841 112.168 69.7965C111.285 69.7053 110.274 70.2346 110.157 71.1144C110.025 72.1037 110.993 72.8593 111.865 73.3376C113.91 74.4656 116.093 75.3381 118.352 75.9368L118.728 75.8893C118.933 73.9837 118.863 72.0526 118.513 70.1652Z" fill="url(#paint8_linear_765_1997)"/>
<path d="M72.8774 105.597L71.4902 104.758L72.8774 103.922L73.6841 101.352L74.4873 103.918L75.8745 104.758L74.4873 105.594L73.6841 108.164L72.8774 105.597Z" fill="url(#paint9_linear_765_1997)"/>
<path d="M56.4245 110.599C57.7752 110.599 57.7788 112.698 56.4245 112.698C55.0701 112.698 55.0701 110.599 56.4245 110.599Z" fill="url(#paint10_linear_765_1997)"/>
<path d="M57.8334 119.163V119.159L59.812 117.965L60.9619 114.297L62.1082 117.962L64.0868 119.159L62.1082 120.353L60.9619 124.022L59.812 120.357L57.8334 119.163Z" fill="url(#paint11_linear_765_1997)"/>
<path d="M66.6861 110.599C68.0368 110.599 68.0404 112.698 66.6861 112.698C65.3317 112.698 65.3317 110.599 66.6861 110.599Z" fill="url(#paint12_linear_765_1997)"/>
<path d="M73.6842 119.298C75.0349 119.298 75.0385 121.397 73.6842 121.397C72.3298 121.397 72.3298 119.298 73.6842 119.298Z" fill="url(#paint13_linear_765_1997)"/>
<path fill-rule="evenodd" clip-rule="evenodd" d="M168.175 119.44C168.449 120.004 168.677 120.588 168.854 121.185C170.46 126.621 167.949 132.593 163.893 136.273C159.698 140.08 153.92 141.8 148.352 142.074C147.746 142.103 147.133 142.114 146.52 142.107C146.239 139.668 145.604 137.266 144.527 135.054C143.384 132.703 141.756 130.615 139.81 128.873C135.875 125.347 130.863 123.251 125.851 121.773C125.811 121.761 125.771 121.75 125.732 121.738L125.685 121.725L125.617 121.705C125.578 121.694 125.539 121.684 125.5 121.672C125.461 121.661 125.422 121.65 125.383 121.638C124.843 115.701 125.892 109.76 126.924 103.919C126.98 103.601 127.036 103.283 127.092 102.965C127.159 102.583 127.228 102.199 127.296 101.816C127.761 99.2204 128.229 96.6038 128.315 93.9705C128.399 91.4443 128.059 88.7757 126.632 86.6256C123.835 82.4128 118.024 82.1427 113.862 84.3367C109.814 86.4722 107.66 90.7981 106.674 95.1751C105.097 94.0654 103.392 93.1454 101.523 92.6234C99.03 91.9261 96.2482 92.0211 93.9155 93.1929C91.5098 94.4012 89.9802 96.796 89.513 99.4061C88.4762 105.196 92.4699 110.266 96.9455 113.402C101.925 116.892 107.872 118.553 113.734 119.871C114.81 120.114 115.889 120.347 116.968 120.579L116.973 120.581C119.506 121.127 122.038 121.673 124.533 122.353C125.022 126.818 126.394 131.261 129.045 134.897C130.673 137.127 132.757 138.971 135.185 140.289C137.784 141.701 140.694 142.508 143.625 142.837C144.304 142.913 144.99 142.964 145.677 142.994C145.87 145.319 145.753 147.681 145.388 149.97C144.476 155.749 142.095 161.527 137.707 165.532C133.685 169.205 127.716 171.085 122.412 169.398C119.237 168.389 116.63 166.32 114.043 164.236C113.803 164.382 113.529 164.54 113.238 164.706L113.433 164.863C114.209 165.489 114.975 166.107 115.742 166.682C117.812 168.237 120.028 169.657 122.536 170.387C125.135 171.143 127.92 171.081 130.531 170.417C136.094 169.007 140.456 164.941 143.099 159.954C145.772 154.916 147.024 148.9 146.618 143.216C146.617 143.184 146.613 143.152 146.61 143.12C146.606 143.086 146.602 143.051 146.6 143.016C151.288 143.081 156.062 142.085 160.195 139.92C165.119 137.343 169.007 132.768 170.004 127.209L170.011 127.22C170.475 124.635 170.274 121.893 169.201 119.477C169.138 119.336 169.074 119.197 169.007 119.059C168.729 119.184 168.451 119.311 168.175 119.44ZM93.6089 109.248C97.5405 113.731 103.279 116.151 108.897 117.732L108.894 117.725C111.566 118.476 114.28 119.058 116.994 119.639C119.486 120.172 121.978 120.706 124.438 121.371C124.398 120.897 124.365 120.422 124.346 119.948C124.123 114.467 125.083 109.046 126.037 103.658C126.238 102.521 126.439 101.387 126.628 100.253L126.707 99.7856C127.498 95.0799 128.571 88.7015 124.252 85.399C122.408 83.9899 119.951 83.654 117.706 83.9972C115.26 84.3732 113.052 85.5997 111.394 87.425C109.5 89.5095 108.343 92.1525 107.674 94.8648C107.601 95.1642 107.536 95.4672 107.474 95.7665C108.12 96.2593 108.744 96.7814 109.35 97.3144C111.285 99.0228 113.683 101.184 113.176 104.046C112.971 105.2 112.26 106.276 111.128 106.678C109.96 107.091 108.675 106.667 107.755 105.904C105.539 104.075 105.875 100.731 106.163 98.1868C106.24 97.5151 106.342 96.8361 106.47 96.1535C104.674 94.8393 102.691 93.7587 100.501 93.317C97.9895 92.8132 95.2042 93.1491 93.1416 94.7626C91.0243 96.4236 90.1226 99.2491 90.2759 101.867C90.4402 104.63 91.8092 107.196 93.6089 109.248ZM108.357 97.6575C108.01 97.3582 107.653 97.0661 107.291 96.7777V96.7814C107.163 97.5297 107.065 98.2854 106.995 99.0411C106.868 100.417 106.755 101.885 107.138 103.232C107.485 104.451 108.332 105.565 109.617 105.864C110.825 106.145 111.869 105.4 112.201 104.239C112.958 101.597 110.462 99.46 108.633 97.8942C108.539 97.8138 108.447 97.7349 108.357 97.6575ZM125.485 122.627C126.117 127.804 128.015 133.05 131.837 136.729L131.834 136.733C135.517 140.278 140.555 141.851 145.585 142.081C145.217 139.022 144.275 136.05 142.563 133.437C139.657 128.997 135.002 126.135 130.162 124.208C128.629 123.598 127.066 123.084 125.485 122.627Z" fill="url(#paint14_linear_765_1997)"/>
<path d="M162.592 112.869C163.106 113.085 163.604 113.338 164.081 113.628L163.343 114.256C163.274 114.218 163.206 114.18 163.137 114.143C163.063 114.235 162.957 114.3 162.834 114.304C161.184 114.351 159.541 114.534 157.924 114.852C157.68 114.899 157.446 114.673 157.424 114.443C157.413 114.348 157.431 114.264 157.472 114.191C157.457 114.052 157.508 113.91 157.65 113.804C159.122 112.701 160.783 111.858 162.546 111.329C162.783 111.256 163.042 111.343 163.137 111.588C163.221 111.803 163.115 112.11 162.878 112.179C161.692 112.537 160.564 113.037 159.505 113.665C160.56 113.522 161.619 113.427 162.685 113.393C162.65 113.225 162.618 113.048 162.592 112.869Z" fill="url(#paint15_linear_765_1997)"/>
<path d="M110.734 162.042L104.644 159.808C104.436 159.731 104.203 159.881 104.115 160.071C103.958 160.199 103.885 160.41 104.042 160.626C105.331 162.385 106.911 163.904 108.711 165.12C106.784 164.89 104.962 163.886 103.801 162.298C103.458 161.827 102.677 162.301 103.024 162.78C104.685 165.054 107.532 166.357 110.343 166.047C110.777 165.999 110.982 165.426 110.555 165.189C108.671 164.145 106.992 162.765 105.601 161.13C106.602 161.498 107.602 161.865 108.604 162.233L108.607 162.234C109.241 162.467 109.876 162.699 110.511 162.933C110.741 163.017 111.011 162.82 111.066 162.601C111.131 162.338 110.964 162.133 110.734 162.046V162.042Z" fill="url(#paint16_linear_765_1997)"/>
<path d="M192.958 145.104C194.309 145.104 194.313 147.203 192.958 147.203C191.604 147.203 191.604 145.104 192.958 145.104Z" fill="url(#paint17_linear_765_1997)"/>
<path d="M109.909 181.284C111.259 181.284 111.263 183.383 109.909 183.383C108.554 183.383 108.554 181.284 109.909 181.284Z" fill="url(#paint18_linear_765_1997)"/>
<path d="M111.314 189.845L113.296 191.042L114.442 194.707L115.592 191.038L117.571 189.845V189.841L115.592 188.647L114.442 184.982L113.296 188.651L111.314 189.845Z" fill="url(#paint19_linear_765_1997)"/>
<path d="M120.17 181.284C121.521 181.284 121.525 183.383 120.17 183.383C118.816 183.383 118.816 181.284 120.17 181.284Z" fill="url(#paint20_linear_765_1997)"/>
<path d="M181.784 161.641C183.135 161.641 183.139 163.74 181.784 163.74C180.43 163.74 180.43 161.641 181.784 161.641Z" fill="url(#paint21_linear_765_1997)"/>
<path d="M178.294 146.155C179.645 146.155 179.649 148.254 178.294 148.254C176.94 148.254 176.94 146.155 178.294 146.155Z" fill="url(#paint22_linear_765_1997)"/>
<path d="M184.946 154.54L183.558 153.701L184.946 152.865L185.752 150.295L186.555 152.861L187.943 153.701L186.555 154.537L185.752 157.107L184.946 154.54Z" fill="url(#paint23_linear_765_1997)"/>
<path d="M173.169 157.107C174.52 157.107 174.523 159.206 173.169 159.206C171.814 159.206 171.814 157.107 173.169 157.107Z" fill="url(#paint24_linear_765_1997)"/>
</g>
<defs>
<filter id="filter0_f_765_1997" x="0" y="0.928955" width="251" height="237.848" filterUnits="userSpaceOnUse" color-interpolation-filters="sRGB">
<feFlood flood-opacity="0" result="BackgroundImageFix"/>
<feBlend mode="normal" in="SourceGraphic" in2="BackgroundImageFix" result="shape"/>
<feGaussianBlur stdDeviation="16" result="effect1_foregroundBlur_765_1997"/>
</filter>
<linearGradient id="paint0_linear_765_1997" x1="32" y1="32.929" x2="238.042" y2="59.5509" gradientUnits="userSpaceOnUse">
<stop stop-color="#0074E8"/>
<stop offset="0.520833" stop-color="#430098"/>
<stop offset="1" stop-color="#B700A4"/>
</linearGradient>
<radialGradient id="paint1_radial_765_1997" cx="0" cy="0" r="1" gradientUnits="userSpaceOnUse" gradientTransform="translate(124.5 128.358) rotate(90) scale(82.5 117)">
<stop offset="0.604167"/>
<stop offset="0.869792" stop-opacity="0.12"/>
<stop offset="1" stop-opacity="0"/>
</radialGradient>
<linearGradient id="paint2_linear_765_1997" x1="55.457" y1="194.729" x2="193.813" y2="59.2939" gradientUnits="userSpaceOnUse">
<stop stop-color="#0074E8"/>
<stop offset="0.317017" stop-color="#002ABF"/>
<stop offset="0.598399" stop-color="#430098"/>
<stop offset="1" stop-color="#A00090"/>
</linearGradient>
<linearGradient id="paint3_linear_765_1997" x1="55.457" y1="194.729" x2="193.813" y2="59.2939" gradientUnits="userSpaceOnUse">
<stop stop-color="#0074E8"/>
<stop offset="0.317017" stop-color="#002ABF"/>
<stop offset="0.598399" stop-color="#430098"/>
<stop offset="1" stop-color="#A00090"/>
</linearGradient>
<linearGradient id="paint4_linear_765_1997" x1="55.457" y1="194.729" x2="193.813" y2="59.2939" gradientUnits="userSpaceOnUse">
<stop stop-color="#0074E8"/>
<stop offset="0.317017" stop-color="#002ABF"/>
<stop offset="0.598399" stop-color="#430098"/>
<stop offset="1" stop-color="#A00090"/>
</linearGradient>
<linearGradient id="paint5_linear_765_1997" x1="55.457" y1="194.729" x2="193.813" y2="59.2939" gradientUnits="userSpaceOnUse">
<stop stop-color="#0074E8"/>
<stop offset="0.317017" stop-color="#002ABF"/>
<stop offset="0.598399" stop-color="#430098"/>
<stop offset="1" stop-color="#A00090"/>
</linearGradient>
<linearGradient id="paint6_linear_765_1997" x1="55.457" y1="194.729" x2="193.813" y2="59.2939" gradientUnits="userSpaceOnUse">
<stop stop-color="#0074E8"/>
<stop offset="0.317017" stop-color="#002ABF"/>
<stop offset="0.598399" stop-color="#430098"/>
<stop offset="1" stop-color="#A00090"/>
</linearGradient>
<linearGradient id="paint7_linear_765_1997" x1="55.457" y1="194.729" x2="193.813" y2="59.2939" gradientUnits="userSpaceOnUse">
<stop stop-color="#0074E8"/>
<stop offset="0.317017" stop-color="#002ABF"/>
<stop offset="0.598399" stop-color="#430098"/>
<stop offset="1" stop-color="#A00090"/>
</linearGradient>
<linearGradient id="paint8_linear_765_1997" x1="55.457" y1="194.729" x2="193.813" y2="59.2939" gradientUnits="userSpaceOnUse">
<stop stop-color="#0074E8"/>
<stop offset="0.317017" stop-color="#002ABF"/>
<stop offset="0.598399" stop-color="#430098"/>
<stop offset="1" stop-color="#A00090"/>
</linearGradient>
<linearGradient id="paint9_linear_765_1997" x1="55.457" y1="194.729" x2="193.813" y2="59.2939" gradientUnits="userSpaceOnUse">
<stop stop-color="#0074E8"/>
<stop offset="0.317017" stop-color="#002ABF"/>
<stop offset="0.598399" stop-color="#430098"/>
<stop offset="1" stop-color="#A00090"/>
</linearGradient>
<linearGradient id="paint10_linear_765_1997" x1="55.457" y1="194.729" x2="193.813" y2="59.2939" gradientUnits="userSpaceOnUse">
<stop stop-color="#0074E8"/>
<stop offset="0.317017" stop-color="#002ABF"/>
<stop offset="0.598399" stop-color="#430098"/>
<stop offset="1" stop-color="#A00090"/>
</linearGradient>
<linearGradient id="paint11_linear_765_1997" x1="55.457" y1="194.729" x2="193.813" y2="59.2939" gradientUnits="userSpaceOnUse">
<stop stop-color="#0074E8"/>
<stop offset="0.317017" stop-color="#002ABF"/>
<stop offset="0.598399" stop-color="#430098"/>
<stop offset="1" stop-color="#A00090"/>
</linearGradient>
<linearGradient id="paint12_linear_765_1997" x1="55.457" y1="194.729" x2="193.813" y2="59.2939" gradientUnits="userSpaceOnUse">
<stop stop-color="#0074E8"/>
<stop offset="0.317017" stop-color="#002ABF"/>
<stop offset="0.598399" stop-color="#430098"/>
<stop offset="1" stop-color="#A00090"/>
</linearGradient>
<linearGradient id="paint13_linear_765_1997" x1="55.457" y1="194.729" x2="193.813" y2="59.2939" gradientUnits="userSpaceOnUse">
<stop stop-color="#0074E8"/>
<stop offset="0.317017" stop-color="#002ABF"/>
<stop offset="0.598399" stop-color="#430098"/>
<stop offset="1" stop-color="#A00090"/>
</linearGradient>
<linearGradient id="paint14_linear_765_1997" x1="55.457" y1="194.729" x2="193.813" y2="59.2939" gradientUnits="userSpaceOnUse">
<stop stop-color="#0074E8"/>
<stop offset="0.317017" stop-color="#002ABF"/>
<stop offset="0.598399" stop-color="#430098"/>
<stop offset="1" stop-color="#A00090"/>
</linearGradient>
<linearGradient id="paint15_linear_765_1997" x1="55.457" y1="194.729" x2="193.813" y2="59.2939" gradientUnits="userSpaceOnUse">
<stop stop-color="#0074E8"/>
<stop offset="0.317017" stop-color="#002ABF"/>
<stop offset="0.598399" stop-color="#430098"/>
<stop offset="1" stop-color="#A00090"/>
</linearGradient>
<linearGradient id="paint16_linear_765_1997" x1="55.457" y1="194.729" x2="193.813" y2="59.2939" gradientUnits="userSpaceOnUse">
<stop stop-color="#0074E8"/>
<stop offset="0.317017" stop-color="#002ABF"/>
<stop offset="0.598399" stop-color="#430098"/>
<stop offset="1" stop-color="#A00090"/>
</linearGradient>
<linearGradient id="paint17_linear_765_1997" x1="55.457" y1="194.729" x2="193.813" y2="59.2939" gradientUnits="userSpaceOnUse">
<stop stop-color="#0074E8"/>
<stop offset="0.317017" stop-color="#002ABF"/>
<stop offset="0.598399" stop-color="#430098"/>
<stop offset="1" stop-color="#A00090"/>
</linearGradient>
<linearGradient id="paint18_linear_765_1997" x1="55.457" y1="194.729" x2="193.813" y2="59.2939" gradientUnits="userSpaceOnUse">
<stop stop-color="#0074E8"/>
<stop offset="0.317017" stop-color="#002ABF"/>
<stop offset="0.598399" stop-color="#430098"/>
<stop offset="1" stop-color="#A00090"/>
</linearGradient>
<linearGradient id="paint19_linear_765_1997" x1="55.457" y1="194.729" x2="193.813" y2="59.2939" gradientUnits="userSpaceOnUse">
<stop stop-color="#0074E8"/>
<stop offset="0.317017" stop-color="#002ABF"/>
<stop offset="0.598399" stop-color="#430098"/>
<stop offset="1" stop-color="#A00090"/>
</linearGradient>
<linearGradient id="paint20_linear_765_1997" x1="55.457" y1="194.729" x2="193.813" y2="59.2939" gradientUnits="userSpaceOnUse">
<stop stop-color="#0074E8"/>
<stop offset="0.317017" stop-color="#002ABF"/>
<stop offset="0.598399" stop-color="#430098"/>
<stop offset="1" stop-color="#A00090"/>
</linearGradient>
<linearGradient id="paint21_linear_765_1997" x1="55.457" y1="194.729" x2="193.813" y2="59.2939" gradientUnits="userSpaceOnUse">
<stop stop-color="#0074E8"/>
<stop offset="0.317017" stop-color="#002ABF"/>
<stop offset="0.598399" stop-color="#430098"/>
<stop offset="1" stop-color="#A00090"/>
</linearGradient>
<linearGradient id="paint22_linear_765_1997" x1="55.457" y1="194.729" x2="193.813" y2="59.2939" gradientUnits="userSpaceOnUse">
<stop stop-color="#0074E8"/>
<stop offset="0.317017" stop-color="#002ABF"/>
<stop offset="0.598399" stop-color="#430098"/>
<stop offset="1" stop-color="#A00090"/>
</linearGradient>
<linearGradient id="paint23_linear_765_1997" x1="55.457" y1="194.729" x2="193.813" y2="59.2939" gradientUnits="userSpaceOnUse">
<stop stop-color="#0074E8"/>
<stop offset="0.317017" stop-color="#002ABF"/>
<stop offset="0.598399" stop-color="#430098"/>
<stop offset="1" stop-color="#A00090"/>
</linearGradient>
<linearGradient id="paint24_linear_765_1997" x1="55.457" y1="194.729" x2="193.813" y2="59.2939" gradientUnits="userSpaceOnUse">
<stop stop-color="#0074E8"/>
<stop offset="0.317017" stop-color="#002ABF"/>
<stop offset="0.598399" stop-color="#430098"/>
<stop offset="1" stop-color="#A00090"/>
</linearGradient>
</defs>
</svg>
