<svg width="215" height="163" viewBox="0 0 215 163" fill="none" xmlns="http://www.w3.org/2000/svg">
<path d="M25.9999 83.3376C28.1476 80.8601 29.6991 75.671 27.535 71.0036C23.3801 74.3343 24.0898 80.2637 25.9999 83.3376ZM25.8739 62.9584C24.0501 63.8259 19.9728 68.5934 22.5214 74.7558C25.1089 72.0408 27.3402 67.1825 25.8739 62.9584ZM33.1508 27.3355C29.0148 28.3615 28.0483 30.8421 27.5116 34.9496C30.2414 33.6747 33.2227 31.0999 33.1508 27.3355ZM25.4282 55.0878C21.8739 55.6811 20.0473 61.3168 20.6366 64.8476C23.6047 62.927 26.3066 60.1554 25.4282 55.0878ZM27.499 48.1934C25.5191 48.1077 20.9915 50.2515 20.5401 55.7197C23.4578 54.7861 27.6164 52.0326 27.499 48.1934ZM30.3008 40.6298C28.8666 40.4974 24.0025 42.1057 22.5462 47.8066C25.4988 47.3701 29.4072 45.8906 30.3008 40.6298ZM25.2429 40.5581C27.9325 40.4016 33.0536 37.355 33.8165 33.5467C31.2461 33.3408 26.6831 36.4554 25.2429 40.5581ZM26.1871 84.4479C24.0092 79.8499 18.9812 76.4974 15.9727 76.5473C17.1637 83.9038 23.1592 84.965 26.1871 84.4479ZM31.0821 90.8607C32.5721 87.973 33.3711 82.3457 30.1996 79.9935C28.6985 81.3077 26.7168 85.9203 31.0821 90.8607ZM31.9295 92.3074C29.9434 90.083 24.6763 86.0352 20.1532 86.4752C23.5248 93.323 30.223 92.9305 31.9295 92.3074ZM37.3994 97.1771C38.3233 94.0161 38.256 89.4051 34.1954 86.7285C33.064 88.1998 31.9264 92.9699 37.3994 97.1771ZM38.3513 98.4007C35.9039 96.5592 28.7532 92.7315 24.4643 94.0934C29.1545 101.156 36.8321 99.2989 38.3513 98.4007ZM45.8996 102.81C46.6381 98.5788 43.2997 95.256 40.4275 93.2974C38.6346 97.0869 41.7563 100.831 45.8996 102.81ZM33.6877 100.645C40.5209 106.912 44.924 105.212 45.6823 103.345C42.9213 101.992 36.2606 98.9268 33.6877 100.645ZM14.8955 65.8636C12.001 72.424 19.0743 74.7578 22.3119 76.072C21.8363 74.2691 18.1404 66.9784 14.8955 65.8636ZM14.8599 55.2033C12.5211 60.5516 15.9713 65.0431 20.3623 66.6573C20.0725 63.5201 18.5186 57.1739 14.8599 55.2033ZM19.9888 56.9994C20.2988 54.4212 21.0631 49.9321 18.0615 46.4329C14.7286 50.7565 17.6292 55.7108 19.9888 56.9994ZM21.8252 48.8224C22.6223 46.201 22.9835 40.513 20.8694 38.775C16.5807 43.9834 20.338 47.6979 21.8252 48.8224ZM24.1361 42.2369C25.2271 39.9894 27.582 34.6561 25.7261 30.2583C20.6813 36.7193 23.1712 41.1708 24.1361 42.2369Z" fill="black"/>
<path d="M67.5 27.4287L69.7571 32.3221L75.1085 32.9566L71.1521 36.6153L72.2023 41.9008L67.5 39.2687L62.7977 41.9008L63.8479 36.6153L59.8915 32.9566L65.2429 32.3221L67.5 27.4287Z" fill="#0080FF"/>
<path d="M87.5 27.4287L89.7571 32.3221L95.1085 32.9566L91.1521 36.6153L92.2023 41.9008L87.5 39.2687L82.7977 41.9008L83.8479 36.6153L79.8915 32.9566L85.2429 32.3221L87.5 27.4287Z" fill="#0080FF"/>
<path d="M107.5 27.4287L109.757 32.3221L115.108 32.9566L111.152 36.6153L112.202 41.9008L107.5 39.2687L102.798 41.9008L103.848 36.6153L99.8915 32.9566L105.243 32.3221L107.5 27.4287Z" fill="#0080FF"/>
<path d="M127.5 27.4287L129.757 32.3221L135.108 32.9566L131.152 36.6153L132.202 41.9008L127.5 39.2687L122.798 41.9008L123.848 36.6153L119.892 32.9566L125.243 32.3221L127.5 27.4287Z" fill="#0080FF"/>
<path d="M147.5 27.4287L149.757 32.3221L155.108 32.9566L151.152 36.6153L152.202 41.9008L147.5 39.2687L142.798 41.9008L143.848 36.6153L139.892 32.9566L145.243 32.3221L147.5 27.4287Z" fill="#0080FF"/>
<path d="M68.2709 57.0287H71.4709V79.4287H67.7909V60.9647L63.2789 62.2447L62.3829 59.1087L68.2709 57.0287ZM79.5371 57.0287H82.7371V79.4287H79.0571V60.9647L74.5451 62.2447L73.6491 59.1087L79.5371 57.0287ZM90.8034 57.0287H94.0034V79.4287H90.3234V60.9647L85.8114 62.2447L84.9154 59.1087L90.8034 57.0287ZM113.814 66.1807C116.886 66.9167 119.286 69.1567 119.286 72.6447C119.286 77.3487 115.574 79.8447 111.446 79.8447C108.15 79.8447 105.174 78.3407 103.926 75.2047L107.062 73.3807C107.702 75.2687 109.206 76.2607 111.446 76.2607C113.974 76.2607 115.606 74.8847 115.606 72.6447C115.606 70.4047 113.974 69.0607 111.446 69.0607H110.614L109.142 66.8527L113.974 60.4847H104.598V57.0287H118.358V60.1647L113.814 66.1807ZM128.503 64.5487C133.143 64.5487 136.407 67.6847 136.407 72.1967C136.407 76.7087 133.143 79.8447 128.503 79.8447C123.831 79.8447 120.567 76.7087 120.567 72.1967C120.567 70.4687 121.047 68.9327 121.911 67.6847L129.015 57.0287H133.207L128.087 64.5487H128.503ZM128.503 76.3567C130.935 76.3567 132.727 74.7247 132.727 72.1967C132.727 69.6367 130.935 68.0367 128.503 68.0367C126.039 68.0367 124.247 69.6367 124.247 72.1967C124.247 74.7567 126.039 76.3567 128.503 76.3567ZM152.236 64.2607C152.236 65.9887 151.756 67.5247 150.892 68.7727L143.82 79.4287H139.596L144.716 71.9087H144.332C139.692 71.9087 136.396 68.7727 136.396 64.2607C136.396 59.7487 139.692 56.6127 144.332 56.6127C148.972 56.6127 152.236 59.7487 152.236 64.2607ZM140.076 64.2607C140.076 66.7887 141.9 68.4207 144.332 68.4207C146.764 68.4207 148.556 66.8207 148.556 64.2607C148.556 61.7007 146.764 60.1007 144.332 60.1007C141.9 60.1007 140.076 61.7007 140.076 64.2607Z" fill="black"/>
<path d="M63.3081 94.4527C65.3401 94.4527 67.1161 95.7007 67.1161 98.0367C67.1161 100.389 65.2601 101.637 63.1961 101.637C61.5001 101.637 59.9801 100.853 59.3881 99.2367L60.9721 98.3247C61.2601 99.3167 62.0281 99.8447 63.1961 99.8447C64.4441 99.8447 65.2761 99.1567 65.2761 98.0367C65.2761 96.9167 64.4441 96.2447 63.2281 96.2447H59.9641L60.3961 90.2287H66.6361V91.9567H62.0921L61.9001 94.4527H63.3081ZM69.0669 97.3967V95.7327H74.9869V97.3967H69.0669ZM78.9831 95.6367C78.9831 97.0927 83.2871 96.2127 83.2871 99.1727C83.2871 100.773 81.8951 101.637 80.1671 101.637C78.5671 101.637 77.4151 100.917 76.9031 99.7647L78.3911 98.9007C78.6471 99.6207 79.2871 100.053 80.1671 100.053C80.9351 100.053 81.5271 99.7967 81.5271 99.1567C81.5271 97.7327 77.2231 98.5327 77.2231 95.6687C77.2231 94.1647 78.5191 93.2207 80.1511 93.2207C81.4631 93.2207 82.5511 93.8287 83.1111 94.8847L81.6551 95.7007C81.3671 95.0767 80.8071 94.7887 80.1511 94.7887C79.5271 94.7887 78.9831 95.0607 78.9831 95.6367ZM89.2776 95.0927H87.2936V98.9327C87.2936 99.9567 87.9656 99.9407 89.2776 99.8767V101.429C86.6216 101.749 85.5656 101.013 85.5656 98.9327V95.0927H84.0936V93.4287H85.5656V91.7007L87.2936 91.1887V93.4287H89.2776V95.0927ZM97.1728 93.4287H98.9008V101.429H97.1728V100.277C96.5648 101.125 95.6208 101.637 94.3728 101.637C92.1968 101.637 90.3888 99.7967 90.3888 97.4287C90.3888 95.0447 92.1968 93.2207 94.3728 93.2207C95.6208 93.2207 96.5648 93.7327 97.1728 94.5647V93.4287ZM94.6448 99.9887C96.0848 99.9887 97.1728 98.9167 97.1728 97.4287C97.1728 95.9407 96.0848 94.8687 94.6448 94.8687C93.2048 94.8687 92.1168 95.9407 92.1168 97.4287C92.1168 98.9167 93.2048 99.9887 94.6448 99.9887ZM102.963 94.7727C103.443 93.6847 104.419 93.2847 105.427 93.2847V95.1567C104.291 95.0767 102.963 95.6047 102.963 97.3967V101.429H101.235V93.4287H102.963V94.7727ZM113.072 94.7727C113.552 93.6847 114.528 93.2847 115.536 93.2847V95.1567C114.4 95.0767 113.072 95.6047 113.072 97.3967V101.429H111.344V93.4287H113.072V94.7727ZM123.093 93.4287H124.821V101.429H123.093V100.277C122.485 101.125 121.541 101.637 120.293 101.637C118.117 101.637 116.309 99.7967 116.309 97.4287C116.309 95.0447 118.117 93.2207 120.293 93.2207C121.541 93.2207 122.485 93.7327 123.093 94.5647V93.4287ZM120.565 99.9887C122.005 99.9887 123.093 98.9167 123.093 97.4287C123.093 95.9407 122.005 94.8687 120.565 94.8687C119.125 94.8687 118.037 95.9407 118.037 97.4287C118.037 98.9167 119.125 99.9887 120.565 99.9887ZM131.619 95.0927H129.635V98.9327C129.635 99.9567 130.307 99.9407 131.619 99.8767V101.429C128.963 101.749 127.907 101.013 127.907 98.9327V95.0927H126.435V93.4287H127.907V91.7007L129.635 91.1887V93.4287H131.619V95.0927ZM134.371 92.2287C133.763 92.2287 133.267 91.7167 133.267 91.1247C133.267 90.5167 133.763 90.0207 134.371 90.0207C134.979 90.0207 135.475 90.5167 135.475 91.1247C135.475 91.7167 134.979 92.2287 134.371 92.2287ZM133.507 101.429V93.4287H135.235V101.429H133.507ZM141.769 93.2207C143.561 93.2207 144.841 94.4367 144.841 96.5167V101.429H143.113V96.6927C143.113 95.4767 142.409 94.8367 141.321 94.8367C140.185 94.8367 139.289 95.5087 139.289 97.1407V101.429H137.561V93.4287H139.289V94.4527C139.817 93.6207 140.681 93.2207 141.769 93.2207ZM153.39 93.4287H155.086V101.061C155.086 103.637 153.07 104.837 150.974 104.837C149.214 104.837 147.854 104.181 147.182 102.901L148.67 102.037C149.022 102.725 149.614 103.269 151.006 103.269C152.494 103.269 153.39 102.453 153.39 101.061V100.085C152.782 100.949 151.838 101.477 150.606 101.477C148.35 101.477 146.574 99.6367 146.574 97.3487C146.574 95.0607 148.35 93.2207 150.606 93.2207C151.838 93.2207 152.782 93.7487 153.39 94.6127V93.4287ZM150.846 99.8607C152.302 99.8607 153.39 98.7887 153.39 97.3487C153.39 95.9087 152.302 94.8367 150.846 94.8367C149.39 94.8367 148.302 95.9087 148.302 97.3487C148.302 98.7887 149.39 99.8607 150.846 99.8607Z" fill="black"/>
<path d="M189 83.3376C186.852 80.8601 185.301 75.671 187.465 71.0036C191.62 74.3343 190.91 80.2637 189 83.3376ZM189.126 62.9584C190.95 63.8259 195.027 68.5934 192.479 74.7558C189.891 72.0408 187.66 67.1825 189.126 62.9584ZM181.849 27.3355C185.985 28.3615 186.952 30.8421 187.488 34.9496C184.759 33.6747 181.777 31.0999 181.849 27.3355ZM189.572 55.0878C193.126 55.6811 194.953 61.3168 194.363 64.8476C191.395 62.927 188.693 60.1554 189.572 55.0878ZM187.501 48.1934C189.481 48.1077 194.009 50.2515 194.46 55.7197C191.542 54.7861 187.384 52.0326 187.501 48.1934ZM184.699 40.6298C186.133 40.4974 190.997 42.1057 192.454 47.8066C189.501 47.3701 185.593 45.8906 184.699 40.6298ZM189.757 40.5581C187.068 40.4016 181.946 37.355 181.183 33.5467C183.754 33.3408 188.317 36.4554 189.757 40.5581ZM188.813 84.4479C190.991 79.8499 196.019 76.4974 199.027 76.5473C197.836 83.9038 191.841 84.965 188.813 84.4479ZM183.918 90.8607C182.428 87.973 181.629 82.3457 184.8 79.9935C186.301 81.3077 188.283 85.9203 183.918 90.8607ZM183.07 92.3074C185.057 90.083 190.324 86.0352 194.847 86.4752C191.475 93.323 184.777 92.9305 183.07 92.3074ZM177.601 97.1771C176.677 94.0161 176.744 89.4051 180.805 86.7285C181.936 88.1998 183.074 92.9699 177.601 97.1771ZM176.649 98.4007C179.096 96.5592 186.247 92.7315 190.536 94.0934C185.846 101.156 178.168 99.2989 176.649 98.4007ZM169.1 102.81C168.362 98.5788 171.7 95.256 174.572 93.2974C176.365 97.0869 173.244 100.831 169.1 102.81ZM181.312 100.645C174.479 106.912 170.076 105.212 169.318 103.345C172.079 101.992 178.739 98.9268 181.312 100.645ZM200.104 65.8636C202.999 72.424 195.926 74.7578 192.688 76.072C193.164 74.2691 196.86 66.9784 200.104 65.8636ZM200.14 55.2033C202.479 60.5516 199.029 65.0431 194.638 66.6573C194.928 63.5201 196.481 57.1739 200.14 55.2033ZM195.011 56.9994C194.701 54.4212 193.937 49.9321 196.938 46.4329C200.271 50.7565 197.371 55.7108 195.011 56.9994ZM193.175 48.8224C192.378 46.201 192.017 40.513 194.131 38.775C198.419 43.9834 194.662 47.6979 193.175 48.8224ZM190.864 42.2369C189.773 39.9894 187.418 34.6561 189.274 30.2583C194.319 36.7193 191.829 41.1708 190.864 42.2369Z" fill="black"/>
<path d="M21.9062 130.073C22.6622 130.433 23.1662 131.141 23.1662 132.053C23.1662 133.397 22.0862 134.429 20.7302 134.429H17.1062V126.029H20.4662C21.7742 126.029 22.8182 127.025 22.8182 128.321C22.8182 129.077 22.4582 129.689 21.9062 130.073ZM20.4662 127.073H18.2222V129.641H20.4662C21.1622 129.641 21.7142 129.077 21.7142 128.357C21.7142 127.649 21.1622 127.073 20.4662 127.073ZM20.7302 133.385C21.4742 133.385 22.0622 132.785 22.0622 132.017C22.0622 131.261 21.4742 130.661 20.7302 130.661H18.2222V133.385H20.7302ZM29.6241 128.429H30.6681V134.429H29.6241V133.397C29.1441 134.129 28.3761 134.585 27.3561 134.585C25.6881 134.585 24.3201 133.205 24.3201 131.429C24.3201 129.653 25.6881 128.273 27.3561 128.273C28.3761 128.273 29.1441 128.729 29.6241 129.461V128.429ZM27.4881 133.577C28.7001 133.577 29.6241 132.653 29.6241 131.429C29.6241 130.205 28.7001 129.281 27.4881 129.281C26.2881 129.281 25.3641 130.205 25.3641 131.429C25.3641 132.653 26.2881 133.577 27.4881 133.577ZM33.3782 130.049C33.3782 131.333 36.7382 130.577 36.7382 132.785C36.7382 133.901 35.7782 134.585 34.4942 134.585C33.2942 134.585 32.4542 134.009 32.1062 133.181L33.0062 132.665C33.1982 133.241 33.7502 133.601 34.4942 133.601C35.1302 133.601 35.6822 133.373 35.6822 132.785C35.6822 131.501 32.3222 132.233 32.3222 130.061C32.3222 129.005 33.2342 128.273 34.4462 128.273C35.4302 128.273 36.2222 128.741 36.6062 129.521L35.7302 130.013C35.5022 129.473 34.9742 129.245 34.4462 129.245C33.9062 129.245 33.3782 129.509 33.3782 130.049ZM38.7822 131.909C38.9862 132.989 39.8382 133.601 40.9542 133.601C41.7822 133.601 42.3822 133.217 42.6822 132.725L43.5702 133.229C43.0422 134.045 42.1302 134.585 40.9302 134.585C38.9982 134.585 37.7142 133.229 37.7142 131.429C37.7142 129.653 38.9862 128.273 40.8582 128.273C42.6702 128.273 43.8462 129.761 43.8462 131.441C43.8462 131.597 43.8342 131.753 43.8102 131.909H38.7822ZM40.8582 129.257C39.7302 129.257 38.9502 129.953 38.7822 130.997H42.7902C42.6102 129.809 41.7582 129.257 40.8582 129.257ZM50.2426 126.029H51.2866V134.429H50.2426V133.397C49.7626 134.129 48.9946 134.585 47.9746 134.585C46.3066 134.585 44.9386 133.205 44.9386 131.429C44.9386 129.653 46.3066 128.273 47.9746 128.273C48.9946 128.273 49.7626 128.729 50.2426 129.461V126.029ZM48.1066 133.577C49.3186 133.577 50.2426 132.653 50.2426 131.429C50.2426 130.205 49.3186 129.281 48.1066 129.281C46.9066 129.281 45.9826 130.205 45.9826 131.429C45.9826 132.653 46.9066 133.577 48.1066 133.577ZM59.1683 134.585C57.4163 134.585 56.0123 133.205 56.0123 131.429C56.0123 129.653 57.4163 128.273 59.1683 128.273C60.9203 128.273 62.3363 129.653 62.3363 131.429C62.3363 133.205 60.9203 134.585 59.1683 134.585ZM59.1683 133.565C60.3683 133.565 61.2923 132.641 61.2923 131.429C61.2923 130.217 60.3683 129.293 59.1683 129.293C57.9803 129.293 57.0563 130.217 57.0563 131.429C57.0563 132.641 57.9803 133.565 59.1683 133.565ZM66.7951 128.273C68.1991 128.273 69.1231 129.209 69.1231 130.745V134.429H68.0791V130.805C68.0791 129.821 67.5151 129.269 66.5911 129.269C65.6311 129.269 64.8511 129.833 64.8511 131.249V134.429H63.8071V128.429H64.8511V129.293C65.2951 128.585 65.9551 128.273 66.7951 128.273ZM79.1485 134.429L77.2645 131.213H75.2845V134.429H74.1685V126.029H77.5285C78.9685 126.029 80.1445 127.193 80.1445 128.633C80.1445 129.737 79.4125 130.709 78.4045 131.069L80.3845 134.429H79.1485ZM75.2845 127.073V130.205H77.5285C78.3565 130.205 79.0285 129.497 79.0285 128.633C79.0285 127.769 78.3565 127.073 77.5285 127.073H75.2845ZM82.0638 131.909C82.2678 132.989 83.1198 133.601 84.2358 133.601C85.0638 133.601 85.6638 133.217 85.9638 132.725L86.8518 133.229C86.3238 134.045 85.4118 134.585 84.2118 134.585C82.2798 134.585 80.9958 133.229 80.9958 131.429C80.9958 129.653 82.2678 128.273 84.1398 128.273C85.9518 128.273 87.1278 129.761 87.1278 131.441C87.1278 131.597 87.1158 131.753 87.0918 131.909H82.0638ZM84.1398 129.257C83.0118 129.257 82.2318 129.953 82.0638 130.997H86.0718C85.8918 129.809 85.0398 129.257 84.1398 129.257ZM88.5679 134.429V125.669H89.6119V134.429H88.5679ZM96.4126 128.429H97.4566V134.429H96.4126V133.397C95.9326 134.129 95.1646 134.585 94.1446 134.585C92.4766 134.585 91.1086 133.205 91.1086 131.429C91.1086 129.653 92.4766 128.273 94.1446 128.273C95.1646 128.273 95.9326 128.729 96.4126 129.461V128.429ZM94.2766 133.577C95.4886 133.577 96.4126 132.653 96.4126 131.429C96.4126 130.205 95.4886 129.281 94.2766 129.281C93.0766 129.281 92.1526 130.205 92.1526 131.429C92.1526 132.653 93.0766 133.577 94.2766 133.577ZM102.542 129.437H100.946V132.689C100.946 133.601 101.474 133.541 102.542 133.493V134.429C100.742 134.669 99.9023 134.189 99.9023 132.689V129.437H98.7143V128.429H99.9023V127.061L100.946 126.749V128.429H102.542V129.437ZM104.546 127.337C104.15 127.337 103.838 127.025 103.838 126.641C103.838 126.257 104.15 125.933 104.546 125.933C104.93 125.933 105.242 126.257 105.242 126.641C105.242 127.025 104.93 127.337 104.546 127.337ZM104.018 134.429V128.429H105.062V134.429H104.018ZM109.715 134.585C107.963 134.585 106.559 133.205 106.559 131.429C106.559 129.653 107.963 128.273 109.715 128.273C111.467 128.273 112.883 129.653 112.883 131.429C112.883 133.205 111.467 134.585 109.715 134.585ZM109.715 133.565C110.915 133.565 111.839 132.641 111.839 131.429C111.839 130.217 110.915 129.293 109.715 129.293C108.527 129.293 107.603 130.217 107.603 131.429C107.603 132.641 108.527 133.565 109.715 133.565ZM120.414 134.585C118.602 134.585 117.258 133.205 117.258 131.429C117.258 129.653 118.602 128.273 120.414 128.273C121.602 128.273 122.61 128.897 123.066 129.845L122.19 130.349C121.89 129.713 121.218 129.293 120.414 129.293C119.214 129.293 118.302 130.217 118.302 131.429C118.302 132.629 119.214 133.553 120.414 133.553C121.23 133.553 121.89 133.133 122.226 132.509L123.114 133.025C122.61 133.961 121.59 134.585 120.414 134.585ZM124.385 134.429V125.669H125.429V134.429H124.385ZM127.789 127.337C127.393 127.337 127.081 127.025 127.081 126.641C127.081 126.257 127.393 125.933 127.789 125.933C128.173 125.933 128.485 126.257 128.485 126.641C128.485 127.025 128.173 127.337 127.789 127.337ZM127.261 134.429V128.429H128.305V134.429H127.261ZM130.87 131.909C131.074 132.989 131.926 133.601 133.042 133.601C133.87 133.601 134.47 133.217 134.77 132.725L135.658 133.229C135.13 134.045 134.218 134.585 133.018 134.585C131.086 134.585 129.802 133.229 129.802 131.429C129.802 129.653 131.074 128.273 132.946 128.273C134.758 128.273 135.934 129.761 135.934 131.441C135.934 131.597 135.922 131.753 135.898 131.909H130.87ZM132.946 129.257C131.818 129.257 131.038 129.953 130.87 130.997H134.878C134.698 129.809 133.846 129.257 132.946 129.257ZM140.362 128.273C141.766 128.273 142.69 129.209 142.69 130.745V134.429H141.646V130.805C141.646 129.821 141.082 129.269 140.158 129.269C139.198 129.269 138.418 129.833 138.418 131.249V134.429H137.374V128.429H138.418V129.293C138.862 128.585 139.522 128.273 140.362 128.273ZM147.652 129.437H146.056V132.689C146.056 133.601 146.584 133.541 147.652 133.493V134.429C145.852 134.669 145.012 134.189 145.012 132.689V129.437H143.824V128.429H145.012V127.061L146.056 126.749V128.429H147.652V129.437ZM149.735 130.049C149.735 131.333 153.095 130.577 153.095 132.785C153.095 133.901 152.135 134.585 150.851 134.585C149.651 134.585 148.811 134.009 148.463 133.181L149.363 132.665C149.555 133.241 150.107 133.601 150.851 133.601C151.487 133.601 152.039 133.373 152.039 132.785C152.039 131.501 148.679 132.233 148.679 130.061C148.679 129.005 149.591 128.273 150.803 128.273C151.787 128.273 152.579 128.741 152.963 129.521L152.087 130.013C151.859 129.473 151.331 129.245 150.803 129.245C150.263 129.245 149.735 129.509 149.735 130.049ZM158.855 129.437C159.239 128.597 159.971 128.321 160.727 128.321V129.413C159.827 129.377 158.855 129.833 158.855 131.249V134.429H157.811V128.429H158.855V129.437ZM162.392 131.909C162.596 132.989 163.448 133.601 164.564 133.601C165.392 133.601 165.992 133.217 166.292 132.725L167.18 133.229C166.652 134.045 165.74 134.585 164.54 134.585C162.608 134.585 161.324 133.229 161.324 131.429C161.324 129.653 162.596 128.273 164.468 128.273C166.28 128.273 167.456 129.761 167.456 131.441C167.456 131.597 167.444 131.753 167.42 131.909H162.392ZM164.468 129.257C163.34 129.257 162.56 129.953 162.392 130.997H166.4C166.22 129.809 165.368 129.257 164.468 129.257ZM172.862 128.429H173.99L171.59 134.429H170.366L167.966 128.429H169.094L170.978 133.313L172.862 128.429ZM175.641 127.337C175.245 127.337 174.933 127.025 174.933 126.641C174.933 126.257 175.245 125.933 175.641 125.933C176.025 125.933 176.337 126.257 176.337 126.641C176.337 127.025 176.025 127.337 175.641 127.337ZM175.113 134.429V128.429H176.157V134.429H175.113ZM178.721 131.909C178.925 132.989 179.777 133.601 180.893 133.601C181.721 133.601 182.321 133.217 182.621 132.725L183.509 133.229C182.981 134.045 182.069 134.585 180.869 134.585C178.937 134.585 177.653 133.229 177.653 131.429C177.653 129.653 178.925 128.273 180.797 128.273C182.609 128.273 183.785 129.761 183.785 131.441C183.785 131.597 183.773 131.753 183.749 131.909H178.721ZM180.797 129.257C179.669 129.257 178.889 129.953 178.721 130.997H182.729C182.549 129.809 181.697 129.257 180.797 129.257ZM192.059 128.429H193.151L191.291 134.429H190.223L188.819 129.989L187.415 134.429H186.347L184.487 128.429H185.579L186.899 132.989L188.315 128.429H189.323L190.739 133.001L192.059 128.429ZM194.991 130.049C194.991 131.333 198.351 130.577 198.351 132.785C198.351 133.901 197.391 134.585 196.107 134.585C194.907 134.585 194.067 134.009 193.719 133.181L194.619 132.665C194.811 133.241 195.363 133.601 196.107 133.601C196.743 133.601 197.295 133.373 197.295 132.785C197.295 131.501 193.935 132.233 193.935 130.061C193.935 129.005 194.847 128.273 196.059 128.273C197.043 128.273 197.835 128.741 198.219 129.521L197.343 130.013C197.115 129.473 196.587 129.245 196.059 129.245C195.519 129.245 194.991 129.509 194.991 130.049Z" fill="#BFBFBF"/>
</svg>
