<svg xmlns:xlink="http://www.w3.org/1999/xlink"  width="7" height="7" viewBox="0 0 7 7" fill="none" xmlns="http://www.w3.org/2000/svg">
                            <g clip-path="url(#clip0_2114_96)">
                                <path d="M3.5 0C1.57018 0 0 1.57018 0 3.5C0 5.42982 1.57018 7 3.5 7C5.42982 7 7 5.42982 7 3.5C7 1.57018 5.42982 0 3.5 0ZM5.45614 2.57895L3.2193 4.79825C3.08772 4.92982 2.87719 4.9386 2.73684 4.80702L1.55263 3.72807C1.41228 3.59649 1.40351 3.37719 1.52632 3.23684C1.65789 3.09649 1.87719 3.08772 2.01754 3.2193L2.95614 4.07895L4.95614 2.07895C5.09649 1.9386 5.31579 1.9386 5.45614 2.07895C5.59649 2.2193 5.59649 2.4386 5.45614 2.57895Z" fill="#818181"></path>
                            </g>
                            <defs>
                                <clipPath id="clip0_2114_96">
                                    <rect width="7" height="7" fill="white"></rect>
                                </clipPath>
                            </defs>
                        </svg>