<svg xmlns:xlink="http://www.w3.org/1999/xlink"  width="102" height="24" viewBox="0 0 102 24" fill="none" xmlns="http://www.w3.org/2000/svg">
<g clip-path="url(#clip0_118_2030)">
<path d="M77.3271 2.78234C77.3271 1.55272 78.3537 0.556458 79.6001 0.556458C80.8466 0.556458 81.8731 1.56169 81.8731 2.78234C81.8731 4.00298 80.8466 5.00822 79.6001 5.00822C78.3537 5.00822 77.3271 3.97605 77.3271 2.78234ZM77.8221 7.43155H81.3874V23.5871H77.8221V7.43155Z" fill="black"/>
<path d="M41.1795 0H36.5693C37.8983 3.85939 38.6315 7.98803 38.6315 12.2782C38.6315 16.2094 38.0266 20.006 36.8993 23.5871H41.4636C42.4992 19.988 43.0583 16.2004 43.0583 12.2782C43.0583 8.00598 42.3984 3.88631 41.1795 0Z" fill="#0080FF"/>
<path d="M84.5861 15.5094C84.5861 10.6986 88.4813 7.00974 93.293 7.00974C98.1048 7.00974 102 10.6896 102 15.5094C102 20.3291 98.1415 24.009 93.293 24.009C88.4446 24.009 84.5861 20.2932 84.5861 15.5094ZM98.4439 15.5094C98.4439 12.5655 96.1984 10.4024 93.293 10.4024C90.3877 10.4024 88.1422 12.5655 88.1422 15.5094C88.1422 18.4533 90.3877 20.6163 93.293 20.6163C96.1984 20.6163 98.4439 18.4533 98.4439 15.5094Z" fill="black"/>
<path d="M27.2207 20.8048C29.2004 20.8048 30.6852 19.9342 31.4734 18.8033L34.4063 20.4817C32.8849 22.6806 30.4102 24 27.1841 24C21.7399 24 18.2113 20.3471 18.2113 15.5004C18.2113 10.6537 21.7399 7.00076 26.9183 7.00076C32.0966 7.00076 35.1945 10.8781 35.1945 15.5273C35.1945 16.012 35.1303 16.5326 35.0662 16.9813H21.9324C22.4915 19.5034 24.572 20.7958 27.2116 20.7958L27.2207 20.8048ZM31.6109 14.1451C31.116 11.3628 29.0355 10.1691 26.8908 10.1691C24.2145 10.1691 22.3998 11.7218 21.9049 14.1451H31.6017H31.6109Z" fill="black"/>
<path d="M68.0611 0C66.8422 3.88631 66.1823 8.00598 66.1823 12.2782C66.1823 16.2004 66.7505 19.988 67.777 23.5871H72.3413C71.214 20.006 70.6091 16.2094 70.6091 12.2782C70.6091 7.98803 71.3423 3.85939 72.6712 0L68.0611 0Z" fill="#FF0080"/>
<path d="M75.1275 7.43155H66.8422V10.7883H75.1275V7.43155Z" fill="#FF0080"/>
<path d="M63.0569 7.43157V23.5871H59.4917V21.2625C58.236 22.9768 56.293 24.009 53.7176 24.009C49.2266 24.009 45.5055 20.2932 45.5055 15.5094C45.5055 10.7255 49.2357 7.00974 53.7176 7.00974C56.293 7.00974 58.236 8.0419 59.4917 9.72028V7.4226H63.0569V7.43157ZM59.4917 15.5094C59.4917 12.5026 57.2462 10.3396 54.2766 10.3396C51.3071 10.3396 49.0616 12.5026 49.0616 15.5094C49.0616 18.5161 51.3071 20.6791 54.2766 20.6791C57.2462 20.6791 59.4917 18.5161 59.4917 15.5094Z" fill="black"/>
<path d="M17.3131 23.5871C15.251 20.8766 13.5462 17.8968 12.2539 14.7016C14.811 13.4719 16.6624 11.0755 16.6624 8.23934C16.6624 4.20044 13.3629 0.96933 9.23857 0.96933H0V23.5871H3.79441V15.3478H8.28538C8.40453 15.3478 8.58783 15.3478 8.79863 15.3478C9.92596 18.2648 11.3466 21.0292 13.0788 23.5961H17.3223L17.3131 23.5871ZM3.79441 4.46073H9.23857C11.2549 4.46073 12.868 6.11219 12.868 8.23934C12.868 10.3665 11.2549 12.0179 9.23857 12.0179H3.79441V4.46073Z" fill="black"/>
</g>
<defs>
<clipPath id="clip0_118_2030">
<rect width="102" height="24" fill="white"/>
</clipPath>
</defs>
</svg>
