<svg xmlns:xlink="http://www.w3.org/1999/xlink"  width="7" height="7" viewBox="0 0 7 7" fill="none" xmlns="http://www.w3.org/2000/svg">
                            <g clip-path="url(#clip0_2114_68)">
                                <path d="M3.49989 0C2.07404 0 0.914062 1.15997 0.914062 2.58583C0.914062 3.05524 1.12458 3.56008 1.1334 3.58138C1.20139 3.74276 1.33555 3.99344 1.43229 4.14037L3.20526 6.82675C3.27782 6.93688 3.38521 7 3.49989 7C3.61458 7 3.72197 6.93687 3.79453 6.8269L5.56765 4.14037C5.66454 3.99344 5.79855 3.74276 5.86654 3.58138C5.87536 3.56023 6.08573 3.05539 6.08573 2.58583C6.08573 1.15997 4.92575 0 3.49989 0ZM5.58605 3.46334C5.52536 3.608 5.40048 3.84118 5.31363 3.9729L3.54051 6.65943C3.50552 6.71252 3.49442 6.71252 3.45943 6.65943L1.68631 3.9729C1.59946 3.84118 1.47458 3.60784 1.41389 3.46319C1.4113 3.45695 1.21828 2.99226 1.21828 2.58583C1.21828 1.32775 2.24181 0.304216 3.49989 0.304216C4.75798 0.304216 5.78151 1.32775 5.78151 2.58583C5.78151 2.99287 5.58803 3.45878 5.58605 3.46334Z" fill="#818181"></path>
                                <path d="M3.49983 1.2168C2.74492 1.2168 2.13086 1.83101 2.13086 2.58577C2.13086 3.34053 2.74492 3.95474 3.49983 3.95474C4.25474 3.95474 4.8688 3.34053 4.8688 2.58577C4.8688 1.83101 4.25474 1.2168 3.49983 1.2168ZM3.49983 3.65052C2.91285 3.65052 2.43507 3.1729 2.43507 2.58577C2.43507 1.99863 2.91285 1.52101 3.49983 1.52101C4.08681 1.52101 4.56458 1.99863 4.56458 2.58577C4.56458 3.1729 4.08681 3.65052 3.49983 3.65052Z" fill="#818181"></path>
                            </g>
                            <defs>
                                <clipPath id="clip0_2114_68">
                                    <rect width="7" height="7" fill="white"></rect>
                                </clipPath>
                            </defs>
                        </svg>