<svg width="24" height="24" viewBox="0 0 24 24" fill="none" xmlns="http://www.w3.org/2000/svg">
<g clip-path="url(#clip0_4091_86955)">
<path d="M14.7505 9.87752C14.3584 9.87752 14.046 9.80196 13.795 9.68552C13.4195 9.51161 13.1762 9.24363 13.0231 8.97607C12.9468 8.84304 12.8939 8.71076 12.8608 8.59432C12.8276 8.47826 12.8145 8.37607 12.8149 8.31513C12.8149 8.19869 12.7208 8.10461 12.6047 8.10461C12.4887 8.10461 12.3945 8.19869 12.3945 8.31513C12.3945 8.39074 12.4038 8.47404 12.4223 8.56577C12.4547 8.72655 12.5148 8.91161 12.614 9.10324C12.7616 9.38899 12.9968 9.68932 13.3485 9.91685C13.4368 9.97507 13.5312 10.0271 13.6338 10.0734C13.65 10.1432 13.6727 10.2654 13.6724 10.4139C13.6724 10.5214 13.6604 10.641 13.628 10.764C13.5956 10.887 13.5428 11.0119 13.458 11.1341C13.3928 11.2301 13.416 11.3604 13.5116 11.4264C13.6068 11.4923 13.7375 11.4688 13.8035 11.3732C13.9183 11.2077 13.9912 11.0354 14.0345 10.8716C14.0773 10.7073 14.0923 10.5507 14.0923 10.4139C14.0923 10.3456 14.0884 10.2812 14.083 10.2234C14.285 10.2701 14.5064 10.2978 14.7504 10.2978C14.8665 10.2978 14.9606 10.2038 14.9606 10.0877C14.9607 9.97165 14.8666 9.87752 14.7505 9.87752Z" fill="url(#paint0_linear_4091_86955)"/>
<path d="M15.6827 7.17387C15.5817 7.11757 15.454 7.15226 15.3966 7.2537C15.3395 7.35434 15.3754 7.48236 15.4764 7.53978C15.6314 7.62847 15.7255 7.72639 15.7887 7.82782C15.5296 7.91876 15.3006 7.95659 15.0974 7.95659C14.8009 7.95622 14.5584 7.87793 14.3532 7.75765C14.1492 7.63775 13.9846 7.47312 13.8593 7.30306C13.653 7.02157 13.385 6.77136 13.0689 6.58859C12.7527 6.40662 12.3875 6.29248 11.9951 6.29248C11.6515 6.29248 11.2894 6.38117 10.9301 6.57818C10.7836 6.65843 10.656 6.75246 10.5453 6.85545C10.1084 7.02354 9.73249 7.08448 9.41365 7.08448C8.95985 7.08368 8.62127 6.96261 8.39459 6.84307C8.28162 6.78293 8.19715 6.72354 8.14245 6.68037C8.11507 6.65843 8.09463 6.64146 8.08226 6.62989L8.06993 6.61793L8.06759 6.61564C7.98701 6.53314 7.85473 6.53079 7.77106 6.61095C7.68781 6.69153 7.68546 6.82418 7.76567 6.90786C7.77799 6.91986 7.92185 7.06709 8.19827 7.21404C8.31931 7.27803 8.46738 7.34089 8.63862 7.39217C8.59315 7.45615 8.53099 7.55023 8.46321 7.66897C8.33327 7.89842 8.18402 8.22073 8.10846 8.59981C8.08493 8.71428 8.15899 8.82457 8.27271 8.84731C8.38648 8.87047 8.49673 8.79603 8.51946 8.68226C8.58312 8.36267 8.71418 8.07809 8.8287 7.87643C8.88617 7.77462 8.93895 7.69484 8.97715 7.64009C8.99642 7.61347 9.01146 7.59228 9.02187 7.57915C9.02688 7.57259 9.03078 7.568 9.03303 7.5649L9.03612 7.56181L9.03649 7.56106C9.05543 7.53753 9.06813 7.5109 9.07545 7.4824C9.18223 7.49628 9.29445 7.50401 9.4136 7.50401C9.63415 7.50401 9.87631 7.47781 10.1369 7.41879C10.007 7.69681 9.95417 7.98753 9.95374 8.25359C9.95454 8.52115 10.0054 8.76486 10.0969 8.95845C10.1465 9.06293 10.2719 9.10807 10.3764 9.05829C10.4809 9.00851 10.526 8.88364 10.4762 8.77873C10.418 8.65761 10.3732 8.46561 10.374 8.25354C10.3737 8.02451 10.4238 7.77312 10.5422 7.54292C10.6613 7.31314 10.8456 7.10375 11.1321 6.94643C11.434 6.78059 11.7232 6.71276 11.995 6.71197C12.3054 6.71276 12.5976 6.80215 12.8591 6.95257C13.1197 7.10257 13.3472 7.31464 13.5207 7.55098C13.6734 7.75957 13.8777 7.9647 14.1403 8.11971C14.4025 8.27473 14.7248 8.37692 15.0973 8.37612C15.3437 8.37612 15.6113 8.3322 15.8997 8.23428L15.9001 8.24895C15.9001 8.35189 15.8839 8.44554 15.8681 8.51192C15.8604 8.54431 15.8523 8.57089 15.8465 8.58748C15.8438 8.59597 15.8419 8.60215 15.8403 8.606L15.8392 8.60909V8.60946C15.7968 8.717 15.8484 8.8385 15.956 8.88167C16.0639 8.92447 16.1862 8.87206 16.2294 8.76486C16.2351 8.74981 16.3188 8.53967 16.32 8.249C16.32 8.0824 16.2911 7.88656 16.1935 7.69339C16.0972 7.49928 15.931 7.31384 15.6827 7.17387Z" fill="url(#paint1_linear_4091_86955)"/>
<path d="M10.2927 5.60459C10.4374 5.43416 10.6428 5.3 10.8769 5.21014C11.1109 5.11911 11.3716 5.07402 11.616 5.07402C11.8535 5.07402 12.0753 5.11756 12.2372 5.19355C12.3432 5.24211 12.4677 5.19589 12.5159 5.09099C12.5645 4.9857 12.5186 4.86041 12.4137 4.81264C12.1793 4.70389 11.9032 4.65533 11.616 4.65491C11.3207 4.65491 11.013 4.70774 10.7257 4.81803C10.4396 4.92828 10.1735 5.0968 9.97305 5.33394C9.89749 5.4222 9.90865 5.55449 9.99696 5.62925C10.0856 5.70481 10.2187 5.69328 10.2927 5.60459Z" fill="url(#paint2_linear_4091_86955)"/>
<path d="M13.5366 0.0214221C8.36062 -0.297093 4.00209 2.95913 4.10076 8.26425L4.09692 8.74434L1.84823 12.7154C1.72715 12.9294 1.71632 13.1889 1.81893 13.4125C1.92149 13.6362 2.12507 13.797 2.36643 13.8448L3.75609 14.228L4.19254 18.4385C4.20412 18.8445 4.38459 19.227 4.69073 19.4935C4.99687 19.7603 5.40098 19.8864 5.80429 19.8412L6.91396 19.9296C7.13062 19.9057 7.34737 19.9747 7.50965 20.1204C7.67198 20.2654 7.76493 20.4732 7.76493 20.6911V24H17.1541C17.1541 24 17.1541 22.3957 17.1541 21.7556C17.1541 21.1151 17.3754 19.6515 17.7941 18.9813C19.3164 16.5476 21.7941 15.2528 22.2121 10.2619C22.6304 5.27025 19.6514 0.398156 13.5366 0.0214221ZM19.7833 8.58042C19.5728 8.92823 19.2323 9.14489 18.8606 9.20892C18.7465 9.22898 18.6694 9.33694 18.6887 9.45145C18.7091 9.56555 18.8174 9.64308 18.9316 9.62264C19.0168 9.60797 19.1009 9.58678 19.1838 9.56016C19.2732 9.74559 19.3179 9.94495 19.3179 10.1435C19.3179 10.3556 19.2674 10.5661 19.1707 10.7565C19.0742 10.9467 18.9316 11.1159 18.7442 11.2478C18.5086 11.4132 18.2406 11.4918 17.9746 11.4923C17.9534 11.4923 17.9325 11.49 17.9117 11.4895C17.9071 11.4544 17.9028 11.4197 17.8967 11.3854V11.385C17.8508 11.1417 17.7556 10.9189 17.6256 10.7253L17.6098 10.7018L17.5882 10.6833C17.4294 10.5468 17.2184 10.3231 17.0557 10.0953C16.9736 9.98156 16.9039 9.86625 16.8568 9.76369C16.8094 9.66075 16.7874 9.57127 16.7882 9.51844C16.7882 9.49491 16.7916 9.47869 16.7963 9.46791C16.8001 9.4575 16.804 9.45131 16.8121 9.44283C16.8938 9.36145 16.8938 9.22805 16.8121 9.14555C16.73 9.06417 16.5974 9.06417 16.5156 9.14555C16.4639 9.19645 16.4253 9.25809 16.4018 9.3233C16.3776 9.38733 16.3687 9.45398 16.3687 9.51839C16.3694 9.66375 16.4134 9.8018 16.4751 9.9383C16.5688 10.1423 16.7083 10.3447 16.8599 10.5298C17.0022 10.7033 17.1529 10.8594 17.2887 10.979C17.3824 11.122 17.4506 11.284 17.4841 11.4625C17.498 11.5377 17.5053 11.6125 17.5069 11.6838V11.6854C17.5069 11.6946 17.5072 11.7039 17.5072 11.7139C17.5072 12.0308 17.3943 12.3312 17.2003 12.5676C17.006 12.8035 16.7326 12.9751 16.4084 13.036C16.3239 13.0522 16.2398 13.0599 16.1573 13.0599C15.712 13.0603 15.3001 12.8363 15.0526 12.4808C15.186 12.3455 15.2998 12.187 15.3861 12.0069V12.0073C15.4937 11.7848 15.5504 11.5488 15.5604 11.3152C15.5654 11.1995 15.476 11.1016 15.3603 11.0966C15.2439 11.0912 15.1463 11.1814 15.1409 11.2971C15.1336 11.4752 15.0904 11.6537 15.0083 11.8241L15.0079 11.8249C14.9196 12.0073 14.797 12.16 14.6504 12.2807L14.6497 12.2811C14.4083 12.4781 14.1041 12.5868 13.793 12.5868C13.5971 12.5868 13.3981 12.544 13.2092 12.4526C12.8595 12.2845 12.6166 11.985 12.509 11.6422H12.5086C12.4678 11.5122 12.4466 11.3753 12.4466 11.2381C12.4466 11.0418 12.4894 10.8428 12.5807 10.6536C12.6313 10.5491 12.5869 10.4234 12.4824 10.3736C12.3783 10.3231 12.253 10.3667 12.2025 10.4712C12.0838 10.718 12.0263 10.9806 12.0263 11.2381C12.0263 11.3631 12.041 11.4864 12.0664 11.6071C11.9025 11.6966 11.7179 11.754 11.5181 11.7682H11.5177C11.485 11.7706 11.453 11.7721 11.4206 11.7721C11.1052 11.7721 10.8133 11.6626 10.5819 11.4771C10.3795 11.3152 10.2246 11.0973 10.142 10.8436C10.2893 10.6983 10.4119 10.5275 10.5017 10.3381C10.5511 10.2332 10.5063 10.1083 10.4015 10.059C10.297 10.0092 10.1709 10.0539 10.1219 10.1592C10.039 10.335 9.91795 10.4912 9.77029 10.6157C9.55978 10.7935 9.29446 10.9076 8.99915 10.9289H8.99878C8.96601 10.9312 8.93399 10.9327 8.90203 10.9327C8.23574 10.9327 7.66664 10.4403 7.57021 9.78178L7.56984 9.77986V9.77873C7.56445 9.74709 7.56098 9.71433 7.55868 9.68039C7.55638 9.64837 7.55521 9.61523 7.55521 9.58284C7.55521 9.49837 7.56332 9.41475 7.57837 9.33413C7.59881 9.21999 7.52367 9.11048 7.40953 9.0893C7.29618 9.06886 7.18631 9.1433 7.1647 9.25739C7.14576 9.363 7.1354 9.47175 7.1354 9.5828L7.13578 9.5955C6.94687 9.57431 6.76368 9.51375 6.59981 9.41775C6.39234 9.29672 6.21614 9.11934 6.09431 8.89181C5.98598 8.68861 5.93465 8.47233 5.93465 8.25792C5.93465 7.98108 6.02067 7.7093 6.17915 7.48214C6.24046 7.56848 6.30946 7.64986 6.38695 7.72617C6.56432 7.90008 6.76945 8.02884 6.98653 8.11289C7.09485 8.15536 7.21598 8.10131 7.25798 7.99261C7.3004 7.88466 7.24603 7.7632 7.13845 7.72116C6.97228 7.65712 6.81646 7.55925 6.68151 7.42659V7.42622C6.56198 7.30978 6.46945 7.17712 6.40349 7.03486C6.3187 6.85439 6.27628 6.65817 6.27628 6.46345C6.2766 6.12183 6.40387 5.7833 6.66065 5.52113C6.87928 5.29823 7.15457 5.16788 7.44028 5.12822H7.44065H7.4414C7.50234 5.12048 7.56323 5.11627 7.62417 5.11627C7.96504 5.11664 8.30395 5.24508 8.56692 5.50148C8.64984 5.58206 8.78245 5.58127 8.86382 5.49802C8.94482 5.41552 8.94328 5.28286 8.86073 5.20148C8.52604 4.87373 8.09268 4.70602 7.65885 4.69833C7.70779 4.49742 7.80192 4.31048 7.93378 4.15313C8.11692 3.93492 8.36718 3.77372 8.66638 3.70472C8.7682 3.68198 8.86842 3.67041 8.96826 3.67041C9.14409 3.67041 9.31528 3.70584 9.47338 3.76988C9.42867 3.92644 9.40396 4.09069 9.40396 4.26113C9.40396 4.37677 9.49771 4.47047 9.61373 4.47047C9.72974 4.47047 9.82345 4.37677 9.82345 4.26113C9.82345 4.07756 9.8609 3.90216 9.92643 3.74292C10.0278 3.49922 10.1994 3.2918 10.415 3.14527C10.6312 2.99873 10.89 2.91356 11.1711 2.91356C11.5759 2.91356 11.9372 3.09052 12.1847 3.37313C12.3933 3.61027 12.5187 3.92025 12.5187 4.26113C12.5187 4.37677 12.6132 4.47047 12.7288 4.47047C12.8449 4.47047 12.9393 4.37677 12.9393 4.26113C12.9393 3.87319 12.8137 3.51347 12.6012 3.22238C12.7099 3.072 12.8483 2.94398 13.0087 2.84916C13.2092 2.73117 13.4425 2.66292 13.6927 2.66292C13.9811 2.66292 14.246 2.75278 14.4646 2.9062C14.6841 3.05967 14.8552 3.27717 14.952 3.52969H14.9517C15.0088 3.67969 15.04 3.84084 15.04 4.01091C15.04 4.12659 15.1344 4.22063 15.2501 4.22063C15.3658 4.22063 15.4606 4.12659 15.4606 4.01091C15.4606 3.83738 15.434 3.67045 15.3874 3.51197C15.6365 3.28064 15.9661 3.14953 16.3066 3.14953C16.4843 3.14953 16.6648 3.18464 16.839 3.25903C17.0819 3.36431 17.2771 3.53048 17.4163 3.73331C17.5555 3.93652 17.6372 4.17478 17.6515 4.42153C17.653 4.44698 17.6542 4.47206 17.6542 4.49747C17.6534 4.67564 17.6183 4.85531 17.5435 5.02997C17.4977 5.13642 17.547 5.2598 17.6534 5.30527C17.7602 5.35116 17.8832 5.30217 17.9294 5.19577C18.0074 5.01455 18.0521 4.82752 18.0671 4.63978C18.273 4.65441 18.4735 4.71689 18.6509 4.82175C18.8533 4.94128 19.0264 5.11631 19.1444 5.3407C19.2478 5.53697 19.2963 5.74556 19.2967 5.95223C19.2967 6.04669 19.2852 6.14039 19.2648 6.23217C19.1391 6.18281 19.008 6.14967 18.8773 6.13036C18.7631 6.11456 18.6563 6.19477 18.6409 6.30966C18.6243 6.42459 18.7045 6.53058 18.8187 6.54642C18.9509 6.56527 19.0808 6.60309 19.205 6.66169C19.2266 6.69759 19.2598 6.72727 19.3014 6.74541C19.3268 6.75656 19.3542 6.762 19.3808 6.762C19.4583 6.81366 19.5289 6.87187 19.5918 6.93548L19.5921 6.93586C19.8443 7.18992 19.9796 7.53272 19.9796 7.8832C19.9796 8.12119 19.9167 8.3618 19.7833 8.58042Z" fill="url(#paint3_linear_4091_86955)"/>
<path d="M17.6029 6.72437C17.4988 6.63451 17.387 6.56087 17.2686 6.50921C17.1498 6.45676 17.0249 6.42554 16.8973 6.42554C16.7812 6.42554 16.6875 6.51962 16.6875 6.63568C16.6875 6.75174 16.7812 6.84544 16.8973 6.84544C16.9744 6.84544 17.0715 6.87207 17.1749 6.93146C17.3287 7.01972 17.4887 7.17858 17.6044 7.37677C17.7217 7.57533 17.7964 7.81093 17.7957 8.05501C17.7949 8.32299 17.7105 8.60293 17.4814 8.8809C17.4082 8.96996 17.4205 9.10262 17.5099 9.17626C17.5994 9.25069 17.732 9.23757 17.8057 9.14888C18.0937 8.80069 18.2167 8.41515 18.2163 8.05501C18.2163 7.83601 18.1716 7.62624 18.0983 7.43499C17.9873 7.14849 17.8107 6.90399 17.6029 6.72437Z" fill="url(#paint4_linear_4091_86955)"/>
<path d="M16.1506 5.77234C15.5734 5.77234 15.1103 5.55953 14.7895 5.28151C14.6291 5.14267 14.5065 4.9877 14.4259 4.83887C14.3441 4.69042 14.3071 4.5489 14.3079 4.44287C14.3079 4.32723 14.2138 4.23315 14.0981 4.23315C13.9821 4.23315 13.888 4.32723 13.888 4.44287C13.8887 4.63994 13.9505 4.84272 14.0569 5.0394C14.1691 5.24453 14.3326 5.44384 14.5396 5.61887C14.498 5.67672 14.4405 5.75228 14.3665 5.83211C14.2068 6.00676 13.9763 6.19994 13.7006 6.29828C13.5922 6.33681 13.5348 6.45672 13.5737 6.56622C13.6126 6.67572 13.7322 6.73201 13.8421 6.69344C14.2157 6.55928 14.4949 6.31445 14.685 6.10581C14.7694 6.01328 14.835 5.92811 14.8839 5.86023C15.231 6.06034 15.6601 6.19262 16.1505 6.19262C16.2666 6.19262 16.3603 6.09855 16.3603 5.98286C16.3603 5.86684 16.2666 5.77234 16.1506 5.77234Z" fill="url(#paint5_linear_4091_86955)"/>
</g>
<defs>
<linearGradient id="paint0_linear_4091_86955" x1="13.6362" y1="8.06102" x2="15.6279" y2="11.104" gradientUnits="userSpaceOnUse">
<stop stop-color="#0080FF"/>
<stop offset="1" stop-color="#0060BF"/>
</linearGradient>
<linearGradient id="paint1_linear_4091_86955" x1="11.8747" y1="6.25632" x2="12.4429" y2="9.76947" gradientUnits="userSpaceOnUse">
<stop stop-color="#0080FF"/>
<stop offset="1" stop-color="#0060BF"/>
</linearGradient>
<linearGradient id="paint2_linear_4091_86955" x1="11.187" y1="4.64161" x2="11.4372" y2="5.91801" gradientUnits="userSpaceOnUse">
<stop stop-color="#0080FF"/>
<stop offset="1" stop-color="#0060BF"/>
</linearGradient>
<linearGradient id="paint3_linear_4091_86955" x1="11.6694" y1="-0.311457" x2="25.208" y2="22.8189" gradientUnits="userSpaceOnUse">
<stop stop-color="#0080FF"/>
<stop offset="1" stop-color="#0060BF"/>
</linearGradient>
<linearGradient id="paint4_linear_4091_86955" x1="17.4273" y1="6.38921" x2="19.2312" y2="8.35974" gradientUnits="userSpaceOnUse">
<stop stop-color="#0080FF"/>
<stop offset="1" stop-color="#0060BF"/>
</linearGradient>
<linearGradient id="paint5_linear_4091_86955" x1="14.9158" y1="4.20107" x2="16.0982" y2="6.87798" gradientUnits="userSpaceOnUse">
<stop stop-color="#0080FF"/>
<stop offset="1" stop-color="#0060BF"/>
</linearGradient>
<clipPath id="clip0_4091_86955">
<rect width="24" height="24" fill="white"/>
</clipPath>
</defs>
</svg>
