<svg width="25" height="24" viewBox="0 0 25 24" fill="none" xmlns="http://www.w3.org/2000/svg">
<path fill-rule="evenodd" clip-rule="evenodd" d="M22.5 12C22.5 17.5228 18.0228 22 12.5 22C6.97715 22 2.5 17.5228 2.5 12C2.5 6.47715 6.97715 2 12.5 2C18.0228 2 22.5 6.47715 22.5 12ZM12.5 7.75C11.8787 7.75 11.375 8.25368 11.375 8.875C11.375 9.28921 11.0392 9.625 10.625 9.625C10.2108 9.625 9.875 9.28921 9.875 8.875C9.875 7.42525 11.0503 6.25 12.5 6.25C13.9497 6.25 15.125 7.42525 15.125 8.875C15.125 9.58584 14.8415 10.232 14.383 10.704C14.2907 10.7989 14.2027 10.8869 14.1187 10.9708C13.9029 11.1864 13.7138 11.3753 13.5479 11.5885C13.3289 11.8699 13.25 12.0768 13.25 12.25V13C13.25 13.4142 12.9142 13.75 12.5 13.75C12.0858 13.75 11.75 13.4142 11.75 13V12.25C11.75 11.5948 12.055 11.0644 12.3642 10.6672C12.5929 10.3733 12.8804 10.0863 13.1138 9.85346C13.1842 9.78321 13.2496 9.71789 13.307 9.65877C13.5046 9.45543 13.625 9.18004 13.625 8.875C13.625 8.25368 13.1213 7.75 12.5 7.75ZM12.5 17C13.0523 17 13.5 16.5523 13.5 16C13.5 15.4477 13.0523 15 12.5 15C11.9477 15 11.5 15.4477 11.5 16C11.5 16.5523 11.9477 17 12.5 17Z" fill="url(#paint0_linear_4091_86982)"/>
<defs>
<linearGradient id="paint0_linear_4091_86982" x1="12.1776" y1="1.74045" x2="22.5292" y2="22.4436" gradientUnits="userSpaceOnUse">
<stop stop-color="#0080FF"/>
<stop offset="1" stop-color="#0060BF"/>
</linearGradient>
</defs>
</svg>
