<svg width="25" height="24" viewBox="0 0 25 24" fill="none" xmlns="http://www.w3.org/2000/svg">
<path d="M19.3198 9.17996C19.1621 8.82906 18.9065 8.5311 18.5836 8.32181C18.2608 8.11251 17.8845 8.00076 17.4998 7.99996H15.6898L17.0198 4.73996C17.1386 4.44062 17.1834 4.11702 17.1503 3.79667C17.1172 3.47632 17.0073 3.1687 16.8298 2.89996C16.6401 2.62155 16.385 2.39392 16.0869 2.23701C15.7887 2.08011 15.4567 1.99871 15.1198 1.99996H10.7798C10.3696 1.99016 9.96631 2.10676 9.62464 2.33395C9.28296 2.56114 9.01943 2.88791 8.86979 3.26996L5.63979 11.27C5.52412 11.5687 5.48192 11.8909 5.51672 12.2093C5.55153 12.5278 5.66232 12.8332 5.83979 13.1C6.02949 13.3784 6.28459 13.606 6.58271 13.7629C6.88084 13.9198 7.21289 14.0012 7.54979 14H10.3098L8.49979 20.74C8.43949 20.9599 8.45619 21.1939 8.54713 21.4031C8.63808 21.6122 8.79779 21.784 8.99979 21.89C9.15573 21.9647 9.32686 22.0024 9.49979 22C9.64423 22 9.78696 21.9687 9.91815 21.9083C10.0493 21.8478 10.1659 21.7597 10.2598 21.65L19.0598 11.28C19.2952 10.9893 19.4443 10.6384 19.4903 10.2672C19.5362 9.89595 19.4772 9.51929 19.3198 9.17996Z" fill="url(#paint0_linear_4091_86968)"/>
<defs>
<linearGradient id="paint0_linear_4091_86968" x1="12.2795" y1="1.73983" x2="24.5199" y2="18.8765" gradientUnits="userSpaceOnUse">
<stop stop-color="#0080FF"/>
<stop offset="1" stop-color="#0060BF"/>
</linearGradient>
</defs>
</svg>
